<svg version="1.1" xmlns="http://www.w3.org/2000/svg" style="display: block;" viewBox="0 0 1800 1800" width="450" height="450" preserveAspectRatio="none">
<path transform="translate(0,0)" fill="rgb(216,0,109)" d="M 0 0 L 1800 0 L 1800 1800 L 0 1800 L 0 0 z"/>

<path transform="translate(0,0)" fill="rgb(254,254,254)" d="M 367.484 693.116 C 389.947 692.477 409.905 713.101 400.477 734.775 C 392.636 752.802 379.756 772.498 369.8 789.706 L 316.555 881.874 L 221.895 1045.61 C 204.069 1076.55 186.322 1107.66 168.268 1138.47 C 160.823 1151.18 155.51 1157.96 140.728 1161.6 C 123.481 1162.6 110.007 1153.27 105.436 1135.94 C 103.233 1127.59 105.38 1122.06 109.152 1114.66 C 118.726 1095.87 129.823 1077.66 140.417 1059.39 L 196.801 961.879 L 284.269 810.66 C 302.845 778.345 321.385 745.839 340.301 713.719 C 348.615 699.6 351.754 696.875 367.484 693.116 z"/>
<path transform="translate(0,0)" fill="rgb(254,254,254)" d="M 389.237 849.128 C 404.811 848.225 418.888 849.453 427.269 865.457 C 430.338 871.317 431.522 880.737 428.89 886.963 C 418.37 911.851 402.954 935.617 389.255 959.044 L 321.604 1075.51 L 275.449 1155.43 C 264.001 1175.3 250.896 1205.63 230.185 1215.6 C 223.42 1216.79 216.632 1216.64 210.186 1214.1 C 202.038 1210.92 195.549 1204.54 192.233 1196.45 C 190.223 1191.53 188.519 1181.75 190.798 1176.94 C 200.606 1156.22 213.542 1135.21 225.084 1115.27 L 288.507 1005.91 L 344.599 909.342 C 354.003 893.15 363.381 875.763 373.719 860.24 C 377.534 854.512 383.107 851.652 389.237 849.128 z"/>
<path transform="translate(0,0)" fill="rgb(254,254,254)" d="M 1102.9 716.32 C 1113.27 715.85 1119.75 716.008 1130.05 716.54 C 1131.07 776.512 1130.32 838.34 1130.2 898.465 C 1095.77 911.093 1063.84 917.982 1029.06 901.974 C 1020.37 897.224 1012.88 890.546 1007.18 882.452 C 984.891 850.569 992.376 800.462 1025.52 778.839 C 1046.72 765.012 1070.77 763.963 1094.98 768.7 C 1094.92 755.897 1094.07 729.957 1095.36 718.187 C 1097.95 716.257 1099.12 716.769 1102.9 716.32 z"/>
<path transform="translate(0,0)" fill="rgb(216,0,109)" d="M 1067.71 797.266 C 1074.91 796.616 1087.19 797.742 1093.21 802.076 C 1096.42 809.29 1094.91 865.584 1094.82 877.774 C 1081.1 878.854 1074.38 881.22 1060.17 879.158 C 1016.75 864.927 1021.04 804.319 1067.71 797.266 z"/>
<path transform="translate(0,0)" fill="rgb(254,254,254)" d="M 1543.62 1018.39 C 1555.15 1016.76 1573.66 1019.75 1583.89 1025.53 C 1584.96 1026.22 1595.09 1031.92 1595.12 1031.91 C 1616.19 1023.06 1632.54 1014.02 1656.38 1019.48 C 1668.82 1022.33 1677.11 1025.12 1686.06 1034.09 C 1692.53 1040.67 1697.1 1048.89 1699.26 1057.86 C 1702.91 1072.53 1701.28 1141.22 1701.18 1160.28 C 1689.93 1161.68 1677.8 1161.34 1666.48 1160.81 C 1666.09 1142.04 1668.48 1079.53 1663.15 1066.45 C 1660.52 1059.98 1655.9 1054.88 1649.25 1052.49 C 1636.16 1047.78 1622.59 1053.69 1610.77 1058.99 C 1611.98 1077.38 1612.03 1093.14 1612.05 1111.5 C 1612.07 1127.72 1611.96 1143.94 1611.74 1160.17 C 1599.62 1161.82 1589.21 1161.38 1577.16 1160.78 C 1576.63 1142.01 1576.98 1121.25 1576.95 1102.52 C 1576.9 1055.01 1568.56 1043.93 1522.54 1055.46 C 1521.53 1066.82 1522 1083.88 1522.01 1095.49 L 1521.87 1160.43 C 1509.64 1161.35 1498.7 1161.12 1486.47 1160.9 C 1486.86 1121.37 1484.76 1079.17 1486.43 1039.81 C 1502.97 1027.26 1523.14 1020.59 1543.62 1018.39 z"/>
<path transform="translate(0,0)" fill="rgb(254,254,254)" d="M 1381.92 1017.93 C 1422.17 1014.19 1457.89 1043.64 1461.91 1083.86 C 1465.93 1124.08 1436.74 1160.01 1396.55 1164.31 C 1355.95 1168.65 1319.59 1139.11 1315.53 1098.49 C 1311.47 1057.86 1341.27 1021.71 1381.92 1017.93 z"/>
<path transform="translate(0,0)" fill="rgb(216,0,109)" d="M 1385.61 1049.28 C 1433.03 1045.02 1444.1 1123.45 1392.22 1132.91 C 1341.45 1136.06 1335.33 1056.27 1385.61 1049.28 z"/>
<path transform="translate(0,0)" fill="rgb(254,254,254)" d="M 1216.85 765.773 C 1257.06 759.287 1294.88 786.73 1301.18 826.967 C 1307.48 867.204 1279.87 904.897 1239.61 911.019 C 1199.6 917.101 1162.2 889.702 1155.93 849.722 C 1149.67 809.741 1176.9 772.217 1216.85 765.773 z"/>
<path transform="translate(0,0)" fill="rgb(216,0,109)" d="M 1226.98 796.317 C 1274.63 795.081 1282.91 872.3 1229.82 880.607 C 1180.72 879.393 1175.65 802.08 1226.98 796.317 z"/>
<path transform="translate(0,0)" fill="rgb(254,254,254)" d="M 455.251 949.362 C 471.708 949.977 484.529 957.818 488.305 974.665 C 491.852 990.492 477.425 1009.75 469.571 1023.31 L 442.489 1070.11 L 414.781 1118.24 C 403.393 1138.02 396.815 1157.9 372.225 1161.86 C 365.958 1162.09 359.45 1159.97 354.263 1156.51 C 346.646 1151.47 341.464 1143.5 339.957 1134.49 C 339.365 1130.74 339.314 1124.45 340.954 1121.02 C 352.425 1097.05 367.801 1072.27 381.149 1049.15 L 413.242 993.481 C 419.336 982.963 425.455 971.961 432.241 961.888 C 438.299 952.896 445.261 951.01 455.251 949.362 z"/>
<path transform="translate(0,0)" fill="rgb(254,254,254)" d="M 738.956 766.388 C 758.535 764.602 780.848 766.856 795.547 781.24 C 812.834 798.155 811.239 821.77 811.083 843.944 C 810.956 862.111 811.006 880.232 811.003 898.361 C 775.39 910.131 709.49 926.486 689.041 882.287 C 682.779 863.31 686.546 843.713 704.04 832.32 C 724.94 818.708 753.289 820.815 776.591 825.344 L 776.267 821.987 C 772.871 784.976 728.687 794.565 707.415 809.609 C 697.98 801.843 695.436 797.897 690.751 786.929 C 704.295 773.439 720.207 768.228 738.956 766.388 z"/>
<path transform="translate(0,0)" fill="rgb(216,0,109)" d="M 741.948 848.295 C 755.939 847.803 762.326 849.066 775.89 851.608 C 776.18 860.931 775.957 870.829 775.903 880.198 L 759.112 882.996 C 746.819 883.667 713.903 882.391 723.551 857.15 C 725.619 851.74 736.017 849.155 741.948 848.295 z"/>
<path transform="translate(0,0)" fill="rgb(254,254,254)" d="M 1576.87 766.382 C 1596.12 764.066 1620.27 767.084 1634.57 781.267 C 1653.35 799.904 1650.22 827.985 1650.15 852.104 L 1650.1 898.338 C 1613.3 908.657 1550.36 927.902 1528.15 882.574 C 1521.58 863.998 1526.24 842.055 1544.05 831.558 C 1565.53 818.895 1593.01 820.663 1616.37 825.872 C 1613.26 802.674 1603.86 794.92 1579.51 796.719 C 1566.92 797.648 1556.42 802.739 1545.78 809.24 C 1527.98 793.736 1525.29 782.302 1550.34 773.01 C 1559.77 769.512 1566.85 767.576 1576.87 766.382 z"/>
<path transform="translate(0,0)" fill="rgb(216,0,109)" d="M 1580.9 848.277 C 1595.29 848.041 1601.05 848.861 1615.12 851.706 C 1615.41 860.866 1615.26 871.139 1615.3 880.387 L 1598.25 882.978 C 1584.83 883.802 1563.68 883.175 1560.67 865.988 C 1560.11 862.732 1560.93 859.388 1562.93 856.759 C 1567.52 850.624 1573.96 849.188 1580.9 848.277 z"/>
<path transform="translate(0,0)" fill="rgb(254,254,254)" d="M 872.771 1019.32 C 903.147 1015.55 931.632 1027.68 941.927 1058.01 C 946.868 1072.57 945.619 1086.64 945.178 1101.74 C 913.541 1101.28 881.445 1101.79 849.658 1101.44 C 861.493 1146.24 895.295 1138.29 926.364 1119.68 L 928.818 1120.49 C 937.412 1129.47 938.346 1132.03 942.552 1143.76 C 930.893 1153.39 916.97 1159.89 902.1 1162.63 C 795.718 1181.74 784.02 1033.94 872.771 1019.32 z"/>
<path transform="translate(0,0)" fill="rgb(216,0,109)" d="M 875.4 1048.17 C 899.315 1046.35 907.084 1054.57 911.782 1077.25 L 887.25 1077.26 C 876.561 1077.23 859.827 1076.75 849.763 1077.98 C 853.825 1061.8 859.004 1053.8 875.4 1048.17 z"/>
<path transform="translate(0,0)" fill="rgb(254,254,254)" d="M 1092.51 1019.2 C 1113.48 1016.45 1134.8 1021.86 1149.79 1037.34 C 1168.27 1056.41 1165.47 1077.11 1165.09 1101.69 C 1134.05 1101.76 1100.82 1100.92 1070.11 1101.89 C 1070.42 1103.87 1070.84 1105.84 1071.37 1107.77 C 1079.46 1137.8 1111.08 1139.09 1134.28 1126.78 C 1138.3 1124.65 1143.26 1121.08 1147.39 1119.74 L 1150 1121.43 C 1157.49 1130.23 1159.01 1132.87 1163.06 1143.75 C 1148.86 1153.77 1141.2 1158.28 1124.29 1162.06 C 1074.69 1172.97 1032.27 1143.18 1034.02 1090.62 C 1035.26 1053.26 1054.92 1026.28 1092.51 1019.2 z"/>
<path transform="translate(0,0)" fill="rgb(216,0,109)" d="M 1095.59 1048.14 C 1118.01 1046.93 1128.73 1054.68 1131.62 1077.58 C 1124.6 1077.35 1117.29 1077.36 1110.25 1077.26 L 1069.26 1077.2 C 1074.71 1061.54 1079.04 1053.33 1095.59 1048.14 z"/>
<path transform="translate(0,0)" fill="rgb(254,254,254)" d="M 894.242 766.376 C 937.978 760.437 971.337 780.534 970.585 826.91 C 970.153 853.565 970.433 881.067 970.287 907.809 C 958.805 908.126 946.757 908.007 935.228 908.055 C 934.733 887.803 935.461 867.47 935.091 847.237 C 934.717 826.804 938.686 809.638 917.304 799.694 C 902.789 795.97 891.092 798.983 877.005 802.797 C 875.699 815.269 876.14 833.339 876.15 846.096 L 875.99 907.806 C 864.604 908.133 852.507 907.944 841.054 907.936 C 839.843 878.167 840.967 847.836 840.555 818.018 C 840.411 807.602 840.515 796.858 840.995 786.473 C 857.298 774.623 874.388 768.669 894.242 766.376 z"/>
<path transform="translate(0,0)" fill="rgb(254,254,254)" d="M 716.708 987.419 C 726.154 986.757 735.64 986.91 745.06 987.876 C 745.994 998.96 745.848 1012.97 745.991 1024.32 C 762.838 1024.11 779.688 1024.14 796.534 1024.4 C 796.565 1034.03 796.42 1043.65 796.099 1053.27 C 781.383 1054.24 760.206 1054.11 745.43 1053.37 C 745.493 1068.85 742.475 1115.66 750.757 1126.83 C 753.567 1130.61 757.827 1133.04 762.509 1133.55 C 772.348 1134.6 782.656 1128.39 790.085 1122.5 C 793.696 1126.61 796.536 1130.43 799.813 1134.79 C 801.849 1139.07 803.254 1143.59 804.795 1148.07 C 783.069 1165.76 746.531 1171 723.624 1151.32 C 707.831 1137.75 710.116 1109.24 710.277 1089.86 C 710.497 1077.77 710.444 1065.67 710.12 1053.59 C 702.492 1053.75 694.516 1053.65 686.856 1053.67 C 686.385 1043.75 686.287 1034.77 686.285 1024.86 C 694.255 1024.53 702.229 1024.32 710.205 1024.23 C 710.429 1014.67 708.427 998.062 711.479 989.044 C 711.907 987.777 714.888 987.733 716.708 987.419 z"/>
<path transform="translate(0,0)" fill="rgb(254,254,254)" d="M 1249.83 1018.4 C 1269.58 1016.02 1289.07 1023.11 1304.73 1034.84 C 1300.12 1046.49 1294.73 1052.15 1285.88 1060.72 C 1270.62 1050.27 1249.18 1042.58 1234.13 1056.8 C 1194.07 1094.66 1240.73 1163.28 1287.92 1119.96 L 1297.25 1129.49 C 1301.52 1134.3 1303.92 1139.55 1306.43 1145.36 C 1295.95 1154.87 1282.88 1161.06 1268.88 1163.16 C 1165.74 1178.81 1151.28 1030.19 1249.83 1018.4 z"/>
<path transform="translate(0,0)" fill="rgb(254,254,254)" d="M 972.098 969.565 C 984.095 968.846 995.151 969.185 1007.11 969.792 C 1007.66 1033.4 1007.65 1097 1007.08 1160.61 C 994.198 1161.58 984.765 1161.24 972.138 1160.41 C 971.258 1110.56 972.39 1060.43 971.892 1010.56 C 971.756 997.017 971.716 983.087 972.098 969.565 z"/>
<path transform="translate(0,0)" fill="rgb(254,254,254)" d="M 1375.64 766.386 C 1386.73 764.966 1405.57 766.088 1416.25 770.131 C 1415.6 783.203 1413.71 788.283 1408.77 800.449 C 1391.19 797.994 1380.14 798.781 1362.91 800.591 C 1361.66 812.787 1362.09 828.141 1362.09 840.67 L 1362.11 902.25 C 1362.14 904.344 1361.97 904.566 1361.41 906.615 C 1356.43 909.396 1333.47 908.09 1326.52 907.963 C 1325.24 868.528 1326.18 824.12 1326.26 784.277 C 1344.36 773.651 1354.52 768.583 1375.64 766.386 z"/>
<path transform="translate(0,0)" fill="rgb(254,254,254)" d="M 504.233 1054.24 C 543.662 1052.42 551.358 1082.83 533.41 1111.57 C 523.099 1128.07 513.393 1153.44 494.061 1160.57 C 462.468 1167.15 444.459 1135.39 460.261 1110.15 C 471.541 1092.13 482.988 1061 504.233 1054.24 z"/>
<path transform="translate(0,0)" fill="rgb(254,254,254)" d="M 1479.51 766.365 C 1494.12 765.435 1506.96 765.947 1521.07 769.858 C 1519.55 783.385 1518.4 788.151 1512.89 800.469 C 1495.41 797.995 1484.32 798.889 1467.08 800.439 C 1466.18 832.768 1466 865.113 1466.55 897.451 C 1466.59 901.156 1467.01 904.162 1465.51 907.467 C 1458.26 908.533 1439.44 907.996 1431.16 907.938 C 1430.7 871.982 1429.65 819.274 1431.48 784.476 C 1446.94 773.605 1460.73 768.258 1479.51 766.365 z"/>
</svg>