<svg version="1.1" xmlns="http://www.w3.org/2000/svg" style="display: block;" viewBox="0 0 2048 702" width="747" height="256" preserveAspectRatio="none">

<path transform="translate(0,0)" fill="rgb(108,159,128)" d="M 221.247 557.004 C 257.041 497.327 291.549 435.939 326.705 375.815 L 368.559 304.362 C 375.74 291.867 382.685 281.148 388.752 268 C 426.463 328.518 461.334 391.309 497.482 452.843 C 512.36 478.016 527.087 503.277 541.66 528.627 C 546.135 536.397 557.458 554.815 560.744 562.172 C 562.472 565.287 562.694 564.542 562.284 567.479 C 555.402 571.336 247.959 568.951 215.036 568.861 C 217.213 563.893 218.363 561.587 221.247 557.004 z"/>
<path transform="translate(0,0)" fill="rgb(148,167,154)" d="M 221.247 557.004 C 223.03 559.39 223.505 560.95 226.632 561.238 C 235.099 562.018 244.231 561.947 252.709 561.956 L 301.201 561.777 L 466.73 561.759 L 515.95 561.959 C 527.614 561.956 539.37 561.638 550.982 562.725 C 554.486 563.054 558.574 565.104 560.744 562.172 C 562.472 565.287 562.694 564.542 562.284 567.479 C 555.402 571.336 247.959 568.951 215.036 568.861 C 217.213 563.893 218.363 561.587 221.247 557.004 z"/>
<path transform="translate(0,0)" fill="rgb(108,159,128)" d="M 782.293 269.315 C 791.761 280.625 799.567 295.01 807.112 307.827 L 836.478 357.965 L 915.3 493.337 C 928.365 515.886 941.328 539.722 954.786 561.893 C 956.208 563.847 956.31 564.109 956.768 566.486 L 955.53 567.783 C 947.269 570.295 867.697 569.19 854.59 569.2 L 706.364 569.205 C 674.646 569.188 640.962 569.592 609.352 568.461 C 611.632 563.563 613.286 560.255 616.047 555.62 L 782.293 269.315 z"/>
<path transform="translate(0,0)" fill="rgb(148,167,154)" d="M 609.352 568.461 C 611.632 563.563 613.286 560.255 616.047 555.62 C 619.742 561.16 619.844 560.994 626.671 561.197 C 632.957 561.384 639.279 561.473 645.57 561.562 C 671.223 561.758 696.876 561.819 722.529 561.745 L 949.674 562.743 C 951.388 562.737 953.144 562.366 954.786 561.893 C 956.208 563.847 956.31 564.109 956.768 566.486 L 955.53 567.783 C 947.269 570.295 867.697 569.19 854.59 569.2 L 706.364 569.205 C 674.646 569.188 640.962 569.592 609.352 568.461 z"/>
<path transform="translate(0,0)" fill="rgb(108,159,128)" d="M 412.116 133.169 L 761.783 133.215 C 747.798 159.758 728.665 190.243 713.305 216.227 L 652.432 321.435 C 630.506 358.344 608.917 395.452 587.666 432.753 C 578.386 420.974 569.995 404.904 562.292 391.805 C 548.238 368.393 534.491 344.797 521.054 321.024 C 484.897 258.239 447.821 196.412 412.116 133.169 z"/>
<path transform="translate(0,0)" fill="rgb(255,255,255)" d="M 1227.19 228.431 C 1275.77 224.853 1306.4 247.583 1332.91 285.612 C 1319.39 293.338 1304.05 300.445 1289.86 306.923 C 1272 284.285 1259.19 272.531 1228 273.668 C 1157.59 276.233 1135.09 368.839 1184.82 411.992 C 1209.11 433.069 1251.16 435.958 1275.2 411.855 C 1280.39 406.646 1284.88 401.338 1289.67 395.607 C 1295.22 396.033 1325.95 412.411 1332.84 416.036 C 1309.88 449.631 1286.52 470.193 1243.6 473.473 C 1174.44 479.072 1110.32 433.258 1106.24 360.678 C 1101.95 284.103 1152.74 233.141 1227.19 228.431 z"/>
<path transform="translate(0,0)" fill="rgb(255,255,255)" d="M 1474.15 228.425 C 1482.7 228.206 1491.25 228.711 1499.72 229.932 C 1539.25 236.011 1557.18 255.376 1579.1 285.292 C 1567.82 292.509 1548.03 301.299 1535.46 307.175 C 1518.53 282.829 1502.23 271.691 1471.27 273.694 C 1402.19 278.161 1381 373.344 1432.82 413.521 C 1448.03 425.325 1467.28 430.683 1486.4 428.444 C 1510.03 425.442 1522.55 412.293 1536.18 394.779 C 1549.42 402.378 1565.2 407.542 1578.62 416.647 C 1558.53 449.688 1527.72 470.954 1488.57 473.543 C 1419.62 478.768 1355.93 432.234 1352.19 360.085 C 1348.22 283.481 1399.49 232.832 1474.15 228.425 z"/>
<path transform="translate(0,0)" fill="rgb(255,255,255)" d="M 1594.96 232.158 L 1785.03 232.133 L 1785.02 276.818 C 1763.73 275.913 1737.46 276.576 1715.82 276.814 C 1715.33 318.525 1715.64 360.751 1715.63 402.5 L 1715.6 469.64 C 1698.44 469.771 1681.28 469.714 1664.12 469.469 C 1665.35 406.511 1664.28 340.134 1664.38 276.884 C 1641.42 275.976 1617.74 277.194 1594.4 276.269 L 1594.96 232.158 z"/>
</svg>