<svg version="1.1" xmlns="http://www.w3.org/2000/svg" style="display: block;" viewBox="0 0 1024 1024" width="256" height="256" preserveAspectRatio="none">
<path transform="translate(0,0)" fill="rgb(255,255,255)" d="M 0 0 L 1024 0 L 1024 1024 L 0 1024 L 0 0 z"/>

<path transform="translate(0,0)" fill="rgb(250,254,41)" d="M 53.455 376.986 C 81.9962 377.37 100.276 377.26 128.654 379.913 C 132.234 380.242 143.029 381.105 145.787 382.619 C 197.173 389.173 239.583 404.807 286.313 426.233 C 291.163 427.874 292.533 428.499 296.907 431.155 C 319.502 443.325 340.832 456.117 361.072 471.918 C 350.079 491.7 334.341 519.11 319.865 536.74 C 319.197 537.542 317.332 539.926 316.603 540.44 C 312.624 546.524 307.085 554.32 301.983 559.533 C 278.929 585.664 248.852 615.313 220.51 635.772 C 214.656 640.191 198.213 652.476 192.089 655.038 C 174.071 668.405 147.704 678.92 128.246 690.623 C 112.892 665.841 104.64 650.104 92.5564 623.823 C 89.5613 619.354 89.0576 618.212 87.394 613.087 C 68.4423 559.529 53.8093 512.327 52.7473 454.767 C 51.327 427.803 52.4339 403.966 53.455 376.986 z"/>
<path transform="translate(0,0)" fill="rgb(211,89,156)" d="M 248.113 497.329 L 248.865 497.733 C 253.606 500.24 259.125 500.953 264.474 503.445 C 273.729 507.756 315.592 530.254 319.865 536.74 C 319.197 537.542 317.332 539.926 316.603 540.44 C 312.624 546.524 307.085 554.32 301.983 559.533 C 278.929 585.664 248.852 615.313 220.51 635.772 C 214.656 640.191 198.213 652.476 192.089 655.038 C 174.071 668.405 147.704 678.92 128.246 690.623 C 112.892 665.841 104.64 650.104 92.5564 623.823 C 108.561 619.522 148.011 590.554 160.809 579.761 C 162.466 577.544 162.752 576.866 163.848 574.311 L 166.767 570.223 C 173.527 562.899 184.184 554.374 192.039 548.326 C 200.926 541.581 210.256 531.65 218.067 523.525 C 227.234 513.48 232.803 515.173 231.976 500.287 C 233.425 502.77 233.752 503.84 236.266 505.231 C 241.054 504.446 243.932 500.834 248.113 497.329 z"/>
<path transform="translate(0,0)" fill="rgb(232,191,77)" d="M 248.113 497.329 L 248.865 497.733 C 253.606 500.24 259.125 500.953 264.474 503.445 C 273.729 507.756 315.592 530.254 319.865 536.74 C 319.197 537.542 317.332 539.926 316.603 540.44 C 312.624 546.524 307.085 554.32 301.983 559.533 C 278.929 585.664 248.852 615.313 220.51 635.772 L 218.29 635.558 L 217.421 634.092 C 217.47 629.185 242.869 590.264 247.722 584.758 L 243.618 578.644 C 242.758 576.397 241.249 573.573 240.09 571.378 C 231.808 555.696 224.929 539.875 218.067 523.525 C 227.234 513.48 232.803 515.173 231.976 500.287 C 233.425 502.77 233.752 503.84 236.266 505.231 C 241.054 504.446 243.932 500.834 248.113 497.329 z"/>
<path transform="translate(0,0)" fill="rgb(200,64,71)" d="M 247.722 584.758 C 264.035 575.899 280.468 567.566 295.442 556.584 L 301.983 559.533 C 278.929 585.664 248.852 615.313 220.51 635.772 L 218.29 635.558 L 217.421 634.092 C 217.47 629.185 242.869 590.264 247.722 584.758 z"/>
<path transform="translate(0,0)" fill="rgb(193,110,48)" d="M 295.442 556.584 C 299.953 552.939 312.587 541.776 316.603 540.44 C 312.624 546.524 307.085 554.32 301.983 559.533 L 295.442 556.584 z"/>
<path transform="translate(0,0)" fill="rgb(149,33,128)" d="M 160.809 579.761 C 163.54 585.323 164.198 592.532 167.439 599.666 C 175.224 616.808 183.559 638.561 192.089 655.038 C 174.071 668.405 147.704 678.92 128.246 690.623 C 112.892 665.841 104.64 650.104 92.5564 623.823 C 108.561 619.522 148.011 590.554 160.809 579.761 z"/>
<path transform="translate(0,0)" fill="rgb(200,64,71)" d="M 218.067 523.525 C 224.929 539.875 231.808 555.696 240.09 571.378 C 241.249 573.573 242.758 576.397 243.618 578.644 C 242.261 579.157 241.011 579.288 239.583 579.52 C 233.869 576.575 227.768 572.627 222.231 569.173 C 211.319 562.368 199.684 558.9 192.039 548.326 C 200.926 541.581 210.256 531.65 218.067 523.525 z"/>
<path transform="translate(0,0)" fill="rgb(84,222,225)" d="M 52.7473 454.767 C 68.2462 455.204 83.979 455.913 99.4839 457.166 C 108.585 457.902 126.78 466.374 133.55 463.63 C 134.943 467.589 136.652 472.827 140.478 475.044 L 141.47 473.21 C 149.601 474.013 161.195 475.543 169.069 475.889 C 184.272 478.754 193.931 481.306 208.733 486.577 C 215.151 489.785 227.558 495.437 231.976 500.287 C 232.803 515.173 227.234 513.48 218.067 523.525 C 210.256 531.65 200.926 541.581 192.039 548.326 C 184.184 554.374 173.527 562.899 166.767 570.223 L 163.848 574.311 C 162.752 576.866 162.466 577.544 160.809 579.761 C 148.011 590.554 108.561 619.522 92.5564 623.823 C 89.5613 619.354 89.0576 618.212 87.394 613.087 C 68.4423 559.529 53.8093 512.327 52.7473 454.767 z"/>
<path transform="translate(0,0)" fill="rgb(255,255,255)" d="M 140.478 475.044 L 141.47 473.21 C 149.601 474.013 161.195 475.543 169.069 475.889 C 184.272 478.754 193.931 481.306 208.733 486.577 C 215.151 489.785 227.558 495.437 231.976 500.287 C 232.803 515.173 227.234 513.48 218.067 523.525 C 210.256 531.65 200.926 541.581 192.039 548.326 C 184.184 554.374 173.527 562.899 166.767 570.223 C 163.392 564.574 160.247 556.064 157.702 549.755 C 157.348 546.733 154.466 541.47 152.781 538.837 C 147.121 524.801 143.193 491.265 140.478 475.044 z"/>
<path transform="translate(0,0)" fill="rgb(188,234,242)" d="M 85.1829 533.814 C 92.8947 533.96 151.636 539.172 152.781 538.837 C 154.466 541.47 157.348 546.733 157.702 549.755 C 160.247 556.064 163.392 564.574 166.767 570.223 L 163.848 574.311 C 162.752 576.866 162.466 577.544 160.809 579.761 C 148.011 590.554 108.561 619.522 92.5564 623.823 C 89.5613 619.354 89.0576 618.212 87.394 613.087 C 88.8458 606.895 84.5707 579.172 84.4777 570.246 C 84.3483 557.833 84.6942 546.392 85.1829 533.814 z"/>
<path transform="translate(0,0)" fill="rgb(120,148,162)" d="M 157.702 549.755 C 160.247 556.064 163.392 564.574 166.767 570.223 L 163.848 574.311 C 159.886 570.409 156.989 555.305 157.702 549.755 z"/>
<path transform="translate(0,0)" fill="rgb(57,234,163)" d="M 53.455 376.986 C 81.9962 377.37 100.276 377.26 128.654 379.913 C 127.018 401.628 129.025 442.671 133.55 463.63 C 126.78 466.374 108.585 457.902 99.4839 457.166 C 83.979 455.913 68.2462 455.204 52.7473 454.767 C 51.327 427.803 52.4339 403.966 53.455 376.986 z"/>
<path transform="translate(0,0)" fill="rgb(228,167,31)" d="M 248.113 497.329 C 260.846 485.349 274.624 467.021 284.535 452.461 C 288.502 446.632 292.562 435.99 296.907 431.155 C 319.502 443.325 340.832 456.117 361.072 471.918 C 350.079 491.7 334.341 519.11 319.865 536.74 C 315.592 530.254 273.729 507.756 264.474 503.445 C 259.125 500.953 253.606 500.24 248.865 497.733 L 248.113 497.329 z"/>
<path transform="translate(0,0)" fill="rgb(160,237,175)" d="M 128.654 379.913 C 132.234 380.242 143.029 381.105 145.787 382.619 L 145.38 384.64 C 149.093 387.332 157.644 389.512 162.949 392.068 C 173.945 397.367 199.947 408.724 203.354 421.825 C 203.587 422.721 202.931 427.785 202.77 428.929 C 197.008 444.284 188.849 452.138 178.384 464.641 C 176.875 466.444 169.268 474.544 169.069 475.889 C 161.195 475.543 149.601 474.013 141.47 473.21 L 140.478 475.044 C 136.652 472.827 134.943 467.589 133.55 463.63 C 129.025 442.671 127.018 401.628 128.654 379.913 z"/>
<path transform="translate(0,0)" fill="rgb(134,214,82)" d="M 145.787 382.619 C 197.173 389.173 239.583 404.807 286.313 426.233 C 278.35 425.149 268.176 422.502 260.873 421.392 C 251.781 420.011 212.436 416.458 205.696 420.144 C 205.159 422.916 205.483 423.878 206.029 426.606 C 206.112 448.822 206.672 464.576 208.733 486.577 C 193.931 481.306 184.272 478.754 169.069 475.889 C 169.268 474.544 176.875 466.444 178.384 464.641 C 188.849 452.138 197.008 444.284 202.77 428.929 C 202.931 427.785 203.587 422.721 203.354 421.825 C 199.947 408.724 173.945 397.367 162.949 392.068 C 157.644 389.512 149.093 387.332 145.38 384.64 L 145.787 382.619 z"/>
<path transform="translate(0,0)" fill="rgb(94,94,94)" d="M 676.05 427.314 C 762.732 426.768 825.175 418.89 822.819 531.542 C 822.067 567.506 822.888 595.027 797.389 624.06 C 768.606 650.284 714.546 644.047 676.078 643.71 C 675.242 609.055 675.552 573.179 675.513 538.445 C 675.246 501.401 675.425 464.354 676.05 427.314 z"/>
<path transform="translate(0,0)" fill="rgb(255,255,255)" d="M 718.447 461.435 C 746.16 462.211 769.528 463.254 775.176 497.485 C 779.953 526.437 782.013 571.808 765.424 597.185 C 765.022 597.636 764.608 598.077 764.185 598.507 C 752.327 610.543 734.135 609.947 718.489 610.149 C 716.893 575.021 718.629 538.886 717.998 503.623 C 717.751 489.813 717.839 475.226 718.447 461.435 z"/>
<path transform="translate(0,0)" fill="rgb(94,94,94)" d="M 875.653 427.822 C 890.687 427.733 905.074 427.672 920.091 428.219 C 941.439 499.709 964.245 571.526 985.04 643.027 C 970.784 643.876 952.902 644.237 938.743 643.487 C 935.095 633.482 927.065 590.66 921.882 586.044 L 869.287 585.952 C 864.283 604.463 860.27 625.686 854.43 643.609 C 839.972 644.107 825.499 643.917 811.059 643.04 C 815.702 623.994 823.656 599.66 829.458 580.687 L 858.433 485.747 C 863.402 469.611 872.233 443.584 875.653 427.822 z"/>
<path transform="translate(0,0)" fill="rgb(255,255,255)" d="M 893.901 469.007 C 895.013 470.149 896.352 471.725 897.654 472.514 C 898.408 492.523 910.455 537.013 915.558 558.063 L 874.17 557.847 C 881.224 525.078 888.516 503.648 893.901 469.007 z"/>
<path transform="translate(0,0)" fill="rgb(234,232,233)" d="M 893.901 469.007 C 894.385 465.677 894.14 463.484 895.934 461.087 C 897.565 464.806 897.467 468.468 897.654 472.514 C 896.352 471.725 895.013 470.149 893.901 469.007 z"/>
<path transform="translate(0,0)" fill="rgb(94,94,94)" d="M 545.023 427.736 C 581.399 429.091 624.993 427.549 662.371 427.944 C 661.2 438.999 657.506 450.921 654.162 461.538 C 632.133 462.563 609.196 461.325 586.921 461.907 L 586.874 513.785 C 606.956 513.716 627.039 513.77 647.12 513.947 L 646.926 547.77 C 627.459 548.325 606.558 547.966 586.986 547.977 L 586.972 583.5 L 587.018 609.915 L 660.501 609.991 C 661.021 621.209 660.986 632.445 660.398 643.659 C 626.562 644.329 578.202 644.923 544.751 643.247 C 543.444 617.442 544.333 583.295 544.312 556.865 C 543.935 513.821 544.172 470.774 545.023 427.736 z"/>
<path transform="translate(0,0)" fill="rgb(94,94,94)" d="M 416.703 427.978 C 456.122 427.558 495.543 427.569 534.961 428.01 C 533.365 438.362 529.47 451.503 526.72 461.836 C 504.665 462.325 481.037 461.956 458.864 462.023 C 459.145 479.083 458.994 496.495 459.018 513.584 C 478.327 513.209 499.988 513.793 519.362 514.098 C 519.223 525.249 519.308 536.401 519.616 547.549 C 513.939 547.799 507.957 547.852 502.25 547.989 L 459.05 547.966 C 458.64 579.652 459 611.96 458.943 643.726 C 444.946 643.859 430.948 643.887 416.951 643.81 C 415.777 618.481 416.464 587.41 416.433 561.655 C 416.233 517.096 416.323 472.536 416.703 427.978 z"/>
</svg>