<svg version="1.1" xmlns="http://www.w3.org/2000/svg" style="display: block;" viewBox="0 0 2048 768" width="683" height="256" preserveAspectRatio="none">
<path transform="translate(0,0)" fill="rgb(236,68,41)" d="M 701.632 221.221 C 712.024 220.077 744.571 220.913 756.893 220.922 L 870.598 220.992 L 1246.51 220.994 L 1767.19 220.98 L 1934.15 220.964 C 1958.77 220.956 1996.84 219.689 2020.55 221.314 C 2021.57 226.188 2023.2 231.312 2022.02 236.02 C 2019.79 238.935 2020.95 238.123 2017.25 239.096 L 1026.79 239.051 L 781.489 239.039 C 758.889 239.035 736.252 238.591 713.674 239.4 C 701.814 239.826 690.256 240.766 693.67 225.013 C 696.396 222.082 697.491 222.459 701.632 221.221 z"/>
<path transform="translate(0,0)" fill="rgb(236,68,41)" d="M 1203 559.808 C 1210.46 557.615 1212.3 559.949 1217.11 559.412 C 1220.6 560.269 1225.27 561.386 1228.58 562.588 C 1242.86 567.649 1254.53 578.207 1260.98 591.913 C 1273.15 618.023 1272.1 663.573 1263.57 691.589 C 1249.21 738.738 1179.39 743.393 1160.86 697.291 C 1149.01 667.812 1149.58 625.577 1160.49 595.536 C 1169.03 572.032 1182.58 568.84 1203 559.808 z M 1214.45 693.181 C 1226.01 685.23 1227.65 668.173 1227.12 655.227 C 1226.49 639.698 1232.23 594.863 1206.89 598.01 C 1201.8 602.735 1200.22 605.558 1198.08 612.106 C 1193.04 627.484 1187.34 692.907 1213.23 693.186 C 1213.64 693.19 1214.05 693.188 1214.45 693.181 z"/>
<path transform="translate(0,0)" fill="rgb(236,68,41)" d="M 1263.98 306.351 C 1307.46 303.324 1324.48 336.152 1327.38 375.156 C 1330.09 411.673 1325.25 469.598 1278.25 473.063 C 1263.16 473.829 1247.62 473.982 1234.83 464.926 C 1223.59 456.432 1213.4 434.121 1212.59 420.547 C 1209.87 374.746 1204.8 314.358 1263.98 306.351 z M 1273.22 438.443 C 1282.45 429.696 1285.71 415.006 1285.16 402.61 C 1284.42 385.714 1291.44 339.728 1263.37 344.267 C 1251.54 351.846 1253.16 377.471 1252.69 390.028 C 1252.23 402.306 1251.88 444.612 1273.22 438.443 z"/>
<path transform="translate(0,0)" fill="rgb(236,68,41)" d="M 752.961 564.514 C 788.713 562.609 811.069 582.556 814.779 617.466 C 818.896 656.203 818.726 717.801 768.753 724.608 C 754.13 727.028 723.255 726.096 706.674 726.589 C 705.092 714.754 705.605 675.952 705.881 661.711 C 706.465 631.605 704.539 594.292 706.546 565.092 C 720.259 564.167 738.767 564.671 752.961 564.514 z M 767.428 685.255 C 772.979 676.506 774.78 663.819 774.507 653.436 C 774.096 637.786 777.389 613.231 763.946 602.029 C 760.826 599.43 751.665 599.012 747.507 598.633 C 746.904 609.115 746.483 685.658 748.564 690.39 C 755.047 694.119 762.578 690.08 767.428 685.255 z"/>
<path transform="translate(0,0)" fill="rgb(236,68,41)" d="M 1616.86 309.966 C 1647.88 309.216 1707.84 300.903 1721.48 332.636 C 1728.13 348.098 1728.53 371.004 1720.3 386.119 C 1716.63 392.869 1710.71 399.387 1708.32 406.561 C 1710.01 416.253 1724.71 459.304 1729.24 468.282 L 1727.88 469.862 C 1718.9 473.516 1694.93 471.656 1684.58 471.043 C 1680.03 453.929 1672.06 431.21 1669.32 414.714 L 1658.1 411.261 C 1658.7 427.655 1658.29 444.415 1658.92 461.097 C 1658.85 465.376 1658.72 467.119 1659.72 471.371 C 1647.39 472.464 1630.53 471.57 1617.14 472.294 C 1618.12 421.331 1618.39 360.719 1616.86 309.966 z M 1659.84 377.89 C 1669.6 378.662 1674.35 379.863 1682.45 373.939 C 1684.84 369.97 1687.06 358.55 1685.78 354.123 C 1682.05 341.181 1668.74 342.393 1658.82 343.466 C 1658.7 354.743 1658.31 366.734 1659.84 377.89 z"/>
<path transform="translate(0,0)" fill="rgb(236,68,41)" d="M 1643.28 564.526 C 1667.01 566.734 1694.08 562.189 1717.96 565.731 C 1758.9 571.803 1763.59 635.428 1732.09 655.877 C 1737.26 675.289 1751.39 709.299 1753.01 726.984 C 1743.58 725.896 1716.93 727.163 1711.7 725.574 C 1709.15 719.772 1707.08 713.929 1704.83 708.194 C 1702.04 701.061 1695.32 665.613 1686.72 666.514 C 1683.05 672.252 1684.99 717.294 1685.28 726.76 C 1672.87 725.655 1655.94 726.024 1643.67 727.349 C 1643.56 674.184 1644.74 617.337 1643.28 564.526 z M 1684.59 633.271 C 1693.84 633.051 1699.99 634.088 1707.62 629.091 C 1711.54 624.57 1711.36 620.205 1710.92 614.328 C 1710.64 610.839 1710.31 607.354 1709.94 603.874 L 1703.36 597.963 C 1696.69 597.145 1691.68 596.719 1684.97 596.458 C 1684.9 606.61 1685.35 623.686 1684.59 633.271 z"/>
<path transform="translate(0,0)" fill="rgb(236,68,41)" d="M 949.196 309.766 C 996.399 309.19 1079.63 294.96 1052.41 385.734 C 1050.97 390.539 1037.45 398.759 1039.18 406.092 C 1044.39 428.142 1053.84 449.497 1059.55 471.5 C 1050.03 472.117 1025.71 472.399 1016.89 471.098 C 1016.71 470.796 1016.53 470.494 1016.35 470.192 L 1016.06 469.655 C 1009.9 458.545 1004 417.392 993.872 412.057 L 992.22 412.696 C 987.72 421.206 989.783 460.259 991.309 471.508 C 977.168 471.771 963.223 471.537 949.083 472.34 L 949.196 309.766 z M 989.96 378.138 C 999.446 378.433 1006.25 379.861 1013.51 373.415 C 1019.41 360.844 1017.08 354.467 1010.72 343.334 C 1002.8 342.765 997.679 342.546 989.679 342.736 C 989.833 354.536 989.927 366.337 989.96 378.138 z"/>
<path transform="translate(0,0)" fill="rgb(236,68,41)" d="M 1751.73 309.652 C 1778.28 312.189 1821.76 304.73 1838.55 315.013 C 1872.66 335.908 1862.62 382.463 1842.56 403.535 C 1839.98 406.253 1858.43 457.231 1862.2 468.247 L 1860.95 469.708 C 1852.75 473.059 1828.87 472.251 1819.65 471.412 C 1815.18 460.399 1804.34 414.25 1796.39 411.185 L 1794.75 412.534 C 1790.66 421.8 1792.68 458.729 1793.04 471.578 C 1779.47 472.044 1765.81 471.707 1751.96 472.223 C 1752.61 420.17 1753.12 361.524 1751.73 309.652 z M 1792.67 378.696 C 1801.36 378.464 1808.06 379.503 1814.97 374.582 C 1820.6 366.318 1824.17 352.339 1814.11 346.152 C 1807.1 341.841 1800.5 342.481 1792.63 342.196 L 1792.67 378.696 z"/>
<path transform="translate(0,0)" fill="rgb(236,68,41)" d="M 1084.01 309.671 C 1105.32 309.823 1151.55 306.527 1167.51 313.984 C 1200.32 329.309 1197.41 380.202 1173.53 402.738 C 1170.47 405.626 1191.13 463.047 1194.05 471.016 C 1183.43 471.923 1161.36 472.773 1151.31 470.943 C 1143.95 460.456 1137.32 419.575 1128.46 412.253 L 1126.77 412.558 C 1122.46 420.135 1124.86 461.48 1125.9 471.453 C 1111.8 471.858 1098.13 471.605 1083.95 472.341 L 1084.01 309.671 z M 1124.9 378.285 C 1133.13 378.423 1139.16 379.73 1145.93 374.336 C 1151.27 366.743 1150.26 361.006 1149.8 351.901 L 1144.05 343.208 C 1137.11 342.814 1131.33 342.464 1124.33 342.757 C 1124.66 354.597 1124.85 366.44 1124.9 378.285 z"/>
<path transform="translate(0,0)" fill="rgb(236,68,41)" d="M 1552.07 309.444 C 1555.13 309.786 1554.01 309.32 1556.39 311.107 C 1566.64 346.011 1576.04 380.771 1584.31 416.259 C 1588.03 432.241 1596.46 456.134 1597.5 471.76 C 1584.03 471.777 1570.55 471.872 1557.08 472.046 C 1548.19 440.146 1557.09 440.113 1521.84 442.225 C 1518.3 450.613 1518.11 460.965 1514.68 469.673 C 1509.66 474.104 1482.09 471.717 1474.16 471.663 C 1475.98 455.43 1486.43 419.299 1490.89 402.531 C 1498.97 372.135 1506.22 339.953 1514.87 309.929 L 1552.07 309.444 z M 1528.16 408.385 C 1532.1 408.709 1534.3 408.897 1538.32 408.645 C 1546.48 403.723 1540.6 392.346 1538.38 384.225 C 1537.5 377.029 1534.87 370.309 1532.48 363.468 C 1531.24 370.505 1529.67 379.176 1530.01 386.265 C 1529.18 393.619 1528.56 400.995 1528.16 408.385 z"/>
<path transform="translate(0,0)" fill="rgb(236,68,41)" fill-opacity="0.560784" d="M 1530.01 386.265 C 1529.67 379.176 1531.24 370.505 1532.48 363.468 C 1534.87 370.309 1537.5 377.029 1538.38 384.225 C 1536.59 380.619 1537.01 379.929 1533.95 378.258 C 1530.84 380.593 1530.96 382.19 1530.01 386.265 z"/>
<path transform="translate(0,0)" fill="rgb(236,68,41)" d="M 1072.97 561.376 C 1084.34 559.699 1097.78 561.941 1107.99 566.794 C 1127.74 576.178 1138.26 590.551 1114.56 604.677 C 1109.78 607.528 1107.01 609.864 1101.08 611.819 C 1096.46 607.026 1070.98 582.072 1069.55 608.212 C 1068.9 620.132 1103.54 630.391 1112.52 638.271 C 1121.34 646.008 1130.7 653.813 1131.86 668.096 C 1136.41 704.664 1123.02 723.896 1085.89 728.94 C 1069.32 729.438 1030.12 723.172 1028.91 699.663 C 1028.46 690.837 1047.34 680.416 1054.29 675.05 C 1056.27 677.188 1058.3 679.289 1060.36 681.351 C 1067.17 688.095 1080.2 699.937 1089.56 689.517 C 1091.37 687.488 1092.25 684.797 1092 682.091 C 1089.58 657.155 1030.21 657.789 1029.51 618.037 C 1028.94 585.792 1038.54 564.551 1072.97 561.376 z"/>
<path transform="translate(0,0)" fill="rgb(236,68,41)" d="M 827.746 309.678 L 888.406 309.788 C 897.764 309.792 914.997 310.131 923.752 309.091 C 923.489 321.128 923.234 331.967 923.835 343.972 C 905.756 343.94 885.831 344.359 867.918 343.936 C 868.589 351.255 868.982 362.839 868.008 370.233 L 903.85 369.942 C 903.857 380.24 903.43 395.132 904.134 405.063 C 892.131 404.714 880.121 404.683 868.117 404.971 C 869.065 414.908 868.338 427.283 867.995 437.463 C 883.213 437.418 909.629 436.445 923.919 437.24 C 924.087 448.302 923.865 460.738 924.32 471.584 C 892.265 472.375 859.208 470.974 827.513 471.913 L 827.583 372.198 C 827.581 354.524 828.215 331.413 827.21 314.104 L 827.746 309.678 z"/>
<path transform="translate(0,0)" fill="rgb(236,68,41)" d="M 1600.55 564.465 L 1617.18 564.194 C 1618.01 575.19 1617.72 588.491 1617.73 599.696 C 1604.57 598 1576.8 598.927 1562.14 598.62 L 1562.36 624.295 C 1571.92 625.292 1590.89 622.946 1596.22 628.017 C 1599.96 634.239 1598.22 651.218 1597.94 659.419 C 1586.88 658.825 1573.47 659.22 1562.33 659.453 C 1561.99 669.108 1562.12 681.959 1563.03 691.443 C 1581.31 693.527 1599.8 690.918 1616.95 694.682 C 1618.7 695.064 1618.56 709.306 1618.57 711.329 L 1617.7 726.622 C 1587.81 726.07 1551.94 725.369 1522.13 726.642 C 1520.63 717.279 1520.99 677.236 1521.18 666.181 C 1521.77 633.594 1520.19 597.345 1521.81 565.081 C 1547.33 563.756 1574.55 565.11 1600.55 564.465 z"/>
<path transform="translate(0,0)" fill="rgb(236,68,41)" d="M 918.228 564.5 L 936.862 564.101 C 937.059 576.028 937.167 587.958 937.186 599.887 C 924.267 597.936 896.392 599.038 881.74 598.652 C 881.764 607.205 881.852 615.758 882.004 624.31 C 919.393 627.645 919.21 615.104 917.547 659.424 C 905.057 658.944 894.429 659.291 881.941 659.835 C 881.776 670.838 881.761 680.419 882.269 691.398 C 896.891 693.193 926.163 691.685 935.649 693.748 C 939.248 697.831 938.27 707.787 938.223 713.59 L 937.607 726.543 C 915.764 726.026 861.231 724.969 841.437 727.326 C 840.317 713.488 841.23 683.768 841.264 668.506 C 841.339 634.485 840.775 598.919 841.667 565.035 C 865.309 563.733 893.826 565.026 918.228 564.5 z"/>
<path transform="translate(0,0)" fill="rgb(236,68,41)" d="M 1399.22 306.313 C 1432.38 304.833 1450.59 318.705 1456.84 351.737 C 1458.76 361.926 1430.84 366.837 1423.91 367.759 C 1416.56 368.737 1415.78 347.78 1410.17 345.065 C 1392.28 336.408 1388.72 369.21 1389 380.084 C 1388.91 396.256 1387.08 428.545 1402.12 438.71 C 1414.3 440.992 1418.88 421.77 1422.96 412.745 C 1428.88 415.517 1436.54 416.914 1443.11 418.936 C 1448.28 421.212 1454.66 424.68 1459.81 427.3 C 1455.39 436.517 1454.77 444.905 1447.78 454.511 C 1440.83 464.198 1431.42 470.833 1419.49 472.73 C 1379.22 479.136 1354.6 460.321 1349.08 419.753 C 1343.26 376.958 1345.24 314.288 1399.22 306.313 z"/>
<path transform="translate(0,0)" fill="rgb(236,68,41)" d="M 991.03 8.29574 C 1006.29 5.37719 1026.04 11.3726 1034.79 23.495 C 1057.47 54.8998 1046.62 117.731 1015 139.959 C 1005.07 146.935 984.882 159.487 973.198 158.239 C 969.559 156.243 970.582 156.689 968.141 152.53 C 963.746 136.866 958.718 129.024 977.683 124.046 C 989.224 121.016 999.921 112.03 1007.14 102.612 C 979.466 106.203 955.408 106.131 949.328 71.5691 C 946.671 56.4648 949.314 36.4875 958.109 23.6832 C 964.092 14.9728 980.772 9.78794 991.03 8.29574 z M 999.06 75.8503 C 1005.53 74.1031 1006.96 72.3873 1010.9 66.8926 C 1011.15 61.5178 1011.63 54.8731 1011.6 49.5987 C 1007.26 42.2883 1006.24 39.7654 997.405 38.1144 C 992.114 39.5083 990.049 40.7465 987.135 45.6411 C 983.95 51.0288 983.02 57.4561 984.548 63.5257 C 986.774 72.2494 990.95 74.6674 999.06 75.8503 z"/>
<path transform="translate(0,0)" fill="rgb(236,68,41)" d="M 706.262 309.84 C 735.115 309.298 774.485 308.866 803.198 309.735 C 803.239 320.578 803.064 332.473 803.607 343.213 C 795.6 344.637 757.387 344.005 746.844 343.986 C 747.132 352.724 747.192 361.468 747.024 370.209 C 755.224 370.192 775.573 370.668 782.818 369.777 C 782.888 378.892 782.491 396.768 783.437 405.01 C 774.79 404.121 756.583 404.851 746.859 404.824 C 748.67 420.04 747.233 452.525 748.382 471.64 L 706.226 471.913 C 705.961 464.327 705.799 456.592 705.922 449.004 C 706.666 402.831 704.77 355.942 706.262 309.84 z"/>
<path transform="translate(0,0)" fill="rgb(236,68,41)" d="M 1293.41 8.23851 C 1322.13 1.65816 1347.45 19.4295 1347.13 49.129 C 1346.73 86.2353 1302.57 94.0718 1293.91 118.382 C 1294.43 123.427 1296.81 124.118 1301.8 124.135 C 1316.97 124.186 1332.38 124.795 1347.47 123.088 C 1348.28 132.604 1348.08 146.265 1348.23 156.112 C 1336.96 154.399 1305.93 155.114 1293.5 155.128 L 1251.77 155.067 C 1252.59 127.977 1256.68 100.865 1278.71 83.3558 C 1291.55 73.1524 1303.75 64.3099 1312.89 50.5116 C 1295.44 20.8389 1287.74 61.7097 1268.02 49.8789 C 1234.99 30.0717 1272.51 11.5039 1293.41 8.23851 z"/>
<path transform="translate(0,0)" fill="rgb(236,68,41)" d="M 1421.42 564.484 L 1448.97 564.385 C 1450.71 601.509 1449.12 651.77 1449.34 689.97 C 1462.17 690.082 1474.78 689.986 1487.57 689.159 C 1505.06 688.027 1499.56 715.102 1498.77 726.12 L 1485.25 726.209 C 1464.35 726.118 1426.77 725.006 1407.65 727.372 C 1406.62 712.974 1407.43 687.432 1407.45 672.369 L 1407.36 565.091 L 1421.42 564.484 z"/>
<path transform="translate(0,0)" fill="rgb(236,68,41)" d="M 1310.1 564.529 L 1334.26 564.099 C 1334.31 605.41 1333.45 649.008 1334.65 690.108 C 1346.02 689.409 1359.21 690.781 1370.4 689.229 C 1391.1 686.357 1386.26 711.76 1386.11 726.156 L 1366.75 726.223 C 1342.87 726.145 1317.7 725.807 1293.94 726.621 L 1294.1 627.991 C 1294.12 608.009 1294.67 585.396 1293.52 565.717 C 1298.55 565.081 1304.94 564.851 1310.1 564.529 z"/>
<path transform="translate(0,0)" fill="rgb(236,68,41)" d="M 1111.18 27.8256 C 1126.06 24.5259 1129.61 22.9815 1141.49 13.2966 C 1148.63 7.47355 1162.42 9.56351 1171.42 10.3944 C 1172.69 21.2016 1172.21 45.3239 1172.15 56.9518 C 1172.03 79.964 1172.48 104.638 1171.62 127.53 C 1174.4 127.715 1180.21 127.281 1183.2 127.146 C 1187.3 127.718 1190.01 127.846 1194.08 127.969 C 1193.97 135.052 1193.47 149.361 1194.77 155.864 C 1190.03 154.895 1173.85 155.082 1168.08 155.062 C 1148.92 155.019 1129.76 155.092 1110.61 155.28 C 1110.41 146.294 1110.47 136.994 1110.42 127.98 C 1118.65 127.797 1126.4 127.716 1134.6 126.813 C 1134.04 117.914 1134.8 107.563 1134.68 98.5043 C 1134.48 82.9058 1134.31 67.2299 1134.4 51.635 C 1127.1 50.7139 1118.38 51.0157 1110.91 51.0639 C 1110.1 43.5324 1110.78 35.4267 1111.18 27.8256 z"/>
<path transform="translate(0,0)" fill="rgb(236,68,41)" d="M 842.35 9.3867 C 848.015 9.26311 860.451 8.36121 864.819 10.9665 C 868.811 20.0577 866.482 111.741 866.375 127.367 C 873.265 127.768 883.177 127.4 890.286 127.352 C 890.031 136.907 890.052 146.466 890.349 156.02 C 879.354 154.339 846.5 155.104 834.25 155.126 L 803.871 155.179 C 804.231 147.448 802.838 136.105 806.437 130.433 C 812.335 125.954 821.909 127.449 829.737 127.599 C 828.115 106.96 829.132 72.6898 828.955 50.8702 L 807.817 50.7359 C 806.926 42.6364 807.202 35.6798 808.159 27.6337 C 835.921 22.6954 829.954 13.59 842.35 9.3867 z"/>
<path transform="translate(0,0)" fill="rgb(236,68,41)" d="M 1918.27 309.572 C 1921.31 309.563 1925.46 309.084 1927.73 310.843 C 1928.6 318.835 1928.11 327.364 1928.15 335.448 C 1928.42 380.414 1927.3 425.68 1928.25 470.616 C 1923.38 472.532 1894.78 471.919 1886.83 472.199 C 1887.51 421.558 1888.26 360.118 1886.53 309.86 C 1896.75 310.013 1907.97 309.67 1918.27 309.572 z"/>
<path transform="translate(0,0)" fill="rgb(236,68,41)" d="M 1421.43 59.0818 C 1429.7 58.0437 1434.49 60.381 1441.29 64.3521 C 1450.22 77.9715 1450.38 94.6319 1432.01 98.8687 C 1413.61 101.558 1407.12 96.1081 1403.8 78.1596 C 1407.09 67.1758 1410.62 62.9673 1421.43 59.0818 z"/>
<path transform="translate(0,0)" fill="rgb(236,68,41)" d="M 717.63 59.1486 C 722.697 58.4762 727.326 59.5796 732.374 60.4391 C 737.263 65.1338 740.689 67.8902 742.148 74.8891 C 744.729 87.2714 739.417 97.0406 726.776 99.6052 C 715.488 100.386 712.212 99.0312 703.319 92.4401 C 702.953 91.1347 702.605 89.824 702.276 88.5086 C 698.818 74.6139 702.469 62.673 717.63 59.1486 z"/>
<path transform="translate(0,0)" fill="rgb(236,68,41)" d="M 1201.83 557.656 C 1201.18 556.054 1199.33 552.847 1199.44 551.117 C 1200.02 541.477 1204.25 529.05 1210.05 521.522 C 1214.49 515.768 1247.29 515.878 1251.56 520.013 C 1251.87 526.685 1229.85 548.989 1223.67 552.958 C 1215.78 554.364 1207.05 553.56 1201.83 557.656 z"/>
<path transform="translate(0,0)" fill="rgb(236,68,41)" fill-opacity="0.0470588" d="M 1918.27 309.572 C 1921.33 307.31 1930.44 309.025 1934.33 309.573 C 1933.33 334.885 1935.16 361.964 1934.42 387.177 C 1934.14 396.588 1936.22 465.73 1932.32 469.677 L 1928.25 470.616 C 1927.3 425.68 1928.42 380.414 1928.15 335.448 C 1928.11 327.364 1928.6 318.835 1927.73 310.843 C 1925.46 309.084 1921.31 309.563 1918.27 309.572 z"/>
<path transform="translate(0,0)" fill="rgb(236,68,41)" fill-opacity="0.0235294" d="M 827.21 314.104 C 820.441 315.995 829.524 464.555 823.603 471.791 C 820.336 467.986 823.84 330.031 821.774 310.677 L 823.008 309.397 L 827.746 309.678 L 827.21 314.104 z"/>
<path transform="translate(0,0)" fill="rgb(236,68,41)" fill-opacity="0.0235294" d="M 803.198 309.735 L 807.598 308.888 C 810.648 313.081 811.159 339.329 806.653 343.362 L 803.607 343.213 C 803.064 332.473 803.239 320.578 803.198 309.735 z"/>
<path transform="translate(0,0)" fill="rgb(236,68,41)" fill-opacity="0.0588235" d="M 782.818 369.777 L 786.424 370.111 C 790.53 375.593 790.075 397.139 787.638 403.727 C 785.797 404.727 785.524 404.781 783.437 405.01 C 782.491 396.768 782.888 378.892 782.818 369.777 z"/>
<path transform="translate(0,0)" fill="rgb(236,68,41)" fill-opacity="0.054902" d="M 1183.2 127.146 C 1188.54 125.976 1193.64 126.742 1198.95 127.72 C 1199.41 135.102 1201.4 149.313 1197.93 155.036 L 1194.77 155.864 C 1193.47 149.361 1193.97 135.052 1194.08 127.969 C 1190.01 127.846 1187.3 127.718 1183.2 127.146 z"/>
<path transform="translate(0,0)" fill="rgb(236,68,41)" fill-opacity="0.0117647" d="M 1201.83 557.656 C 1207.05 553.56 1215.78 554.364 1223.67 552.958 L 1226.69 553.687 C 1226.33 554.952 1226.07 555.542 1225.54 556.747 L 1227.12 559.267 C 1220.87 559.777 1222.25 556.912 1217.11 559.412 C 1212.3 559.949 1210.46 557.615 1203 559.808 L 1201.83 557.656 z"/>
<path transform="translate(0,0)" fill="rgb(236,68,41)" fill-opacity="0.0156863" d="M 1658.92 461.097 C 1662.37 455.509 1659.55 451.061 1662.22 445.713 C 1664.77 450.596 1663.9 462.177 1663.08 467.639 C 1662.78 469.653 1661.37 470.199 1659.72 471.371 C 1658.72 467.119 1658.85 465.376 1658.92 461.097 z"/>
<path transform="translate(0,0)" fill="rgb(236,68,41)" d="M 246.423 6.06117 C 260.328 5.50382 270.868 5.79956 284.554 5.91047 C 338.652 8.90966 391.246 44.3493 425.813 84.6992 C 512.058 185.511 537.705 328.352 520.35 457.056 C 507.725 550.687 474.245 639.652 404.607 705.315 C 314.305 790.462 181.459 779.471 102.238 686.062 C 56.4472 632.07 28.7737 576.148 13.3106 506.567 C 9.86016 491.869 5.39804 452.216 0 445.016 L 0 313.396 C 6.42313 306.948 7.78648 285.702 9.8734 276.062 C 26.2681 200.332 55.3722 126.932 111.43 71.6615 C 148.46 35.1526 192.841 6.77623 246.423 6.06117 z M 352.515 458.298 C 355.8 464.077 358.21 468.385 360.87 474.453 C 366.942 462.44 387.589 413.634 388.769 400.916 L 388.271 399.506 C 383.282 398.489 369.778 406.996 359.205 407.077 C 346.757 407.172 333.331 406.975 320.911 407.091 L 235.077 407.948 C 233.812 367.337 234.905 323.182 235.002 282.267 C 267.505 281.031 303.095 282.335 335.888 281.87 C 350.432 281.664 389.223 281.106 401.319 283.264 C 406.003 289.013 410.765 295.028 415.555 300.659 C 417.999 279.898 433.828 248.221 440.165 227.579 C 440.92 225.123 441.126 222.615 439.999 220.342 C 433.748 223.034 420.915 229.327 414.971 229.854 C 400.643 231.127 384.476 230.507 369.93 230.486 L 285.964 230.396 L 181.957 230.379 C 163.27 230.387 143.337 230.744 124.782 229.77 C 116.968 229.359 101.849 223.79 93.6543 221.164 C 101.93 241.593 114.116 283.874 124.928 298.655 C 126.175 294.13 127.612 285.205 131.764 282.696 C 136.102 280.075 177.813 281.152 183.759 283.022 C 184.375 283.216 185.579 283.509 185.882 284.08 C 188.894 289.762 184.729 525.815 186.128 554.759 C 193.429 562.627 218.787 586.014 229.131 582.736 C 233.404 577.709 231.963 559.067 231.916 551.25 C 231.878 532.987 231.519 515.987 231.847 495.194 C 232.451 457.002 225.443 457.03 267.204 457.706 C 287.825 458.039 316.415 456.356 337.914 456.924 C 342.809 457.01 347.69 457.469 352.515 458.298 z M 187.765 650.911 C 186.531 658.523 184.702 674.473 181.935 680.983 C 179.681 686.283 168.701 689.191 168.016 697.242 C 170.99 699.549 185.278 704.786 189.988 706.933 C 203.158 712.937 216.682 718.595 229.603 725.174 C 234.722 727.68 241.02 731.384 244.588 725.243 C 243.752 719.275 237.124 709.026 235.023 702.915 C 231.329 692.173 231.837 676.561 231.764 665.106 C 217.179 658.749 203.083 655.104 187.765 650.911 z M 249.11 297.157 C 248.668 308.253 245.41 346.701 254.45 353.648 C 294.975 384.797 314.629 402.593 367.749 389.487 L 369.995 387.978 C 370.182 385.26 368.97 383.692 367.197 381.671 C 357.767 370.918 260.889 301.388 249.11 297.157 z M 247.601 74.3719 C 191.548 80.6119 138.796 127.24 133.815 184.801 C 132.663 198.124 129.759 202.843 137.229 215.002 C 150.3 215.838 162.734 214.706 175.307 215.294 C 174.231 200.131 173.76 188.141 178.092 173.189 C 185.839 146.449 206.955 125.599 233.778 117.894 C 261.572 111.877 294.167 114.05 314.142 137.44 C 323.187 148.031 320.483 171.589 332.156 173.816 C 345.256 170.48 349.187 150.206 356.691 139.937 C 364.462 129.304 374.214 120.788 382.345 110.708 C 380.459 107.736 378.283 103.54 374.805 103.263 C 363.828 102.387 358.735 109.721 346.718 106.29 C 336.365 103.333 328.927 97.8609 319.871 92.298 C 297.326 78.4485 274.111 71.4766 247.601 74.3719 z M 109.131 388.258 C 99.0102 404.024 114.473 408.545 114.545 425.835 C 114.591 437.009 111.344 444.883 108.486 455.575 C 82.4354 562.523 176.516 669.562 287.391 644.917 C 328.131 635.787 363.532 610.756 385.721 575.391 C 407.835 540.952 416.039 499.398 408.672 459.138 C 405.757 447.407 403.456 435.531 401.781 423.56 C 385.09 440.558 392.215 452.461 384.444 465.843 C 369.009 492.424 363.159 514.305 354.34 542.046 C 343.017 577.661 292.443 606.522 256.662 604.91 C 225.214 605.184 204.652 594.715 178.489 571.409 C 148.882 545.034 135.444 482.261 156.954 447.007 C 159.501 442.833 180.734 431.826 168.756 420.854 C 151.704 410.534 127.283 395.873 109.131 388.258 z"/>
<path transform="translate(0,0)" fill="rgb(236,68,41)" d="M 1959.38 309.841 C 1973.31 309.613 1987.25 309.63 2001.18 309.893 L 2000.2 435.599 C 2016.26 436.542 2031.92 436.084 2048 436.289 L 2048 472.069 C 2019.06 471.281 1988.3 471.794 1959.25 471.86 C 1958.68 420.234 1958.01 361.183 1959.38 309.841 z"/>
<path transform="translate(0,0)" fill="rgb(236,68,41)" fill-opacity="0.388235" d="M 249.909 0 L 273.355 0 C 276.361 6.76515 278.052 4.45804 284.554 5.91047 C 270.868 5.79956 260.328 5.50382 246.423 6.06117 L 249.354 4.31429 L 249.909 0 z"/>
</svg>