<svg version="1.1" xmlns="http://www.w3.org/2000/svg" style="display: block;" viewBox="0 0 2048 646" width="811" height="256" preserveAspectRatio="none">
<path transform="translate(0,0)" fill="rgb(248,179,18)" d="M 302.757 114.247 L 303.498 115.239 C 286.339 125.586 264.738 135.919 248.581 146.789 C 191.562 185.146 141.592 229.26 113.36 293.348 C 99.2604 325.355 97.814 368.57 109.931 400.548 C 124.972 439.225 169.936 472.024 207.237 486.508 C 377.995 552.814 587.429 505.327 702.597 359.523 C 709.727 350.496 718.224 340.625 722.587 330.027 L 606.388 329.909 C 596.322 329.956 527.262 331.699 522.452 328.129 C 522.327 327.579 522.219 327.035 522.157 326.474 C 521.553 321.02 544.137 211.386 547.554 198.722 C 548.626 194.75 549.816 191.199 552.397 187.939 C 560.436 183.359 671.359 185.208 687.339 185.212 L 911.012 185.178 L 1029.73 185.119 C 1046.28 185.115 1076.96 184.228 1092.64 185.873 C 1094.11 201.015 1088.88 218.588 1085.93 233.857 C 1082.82 250.726 1079.58 267.571 1076.21 284.391 C 1072.9 301.286 1070.42 318.135 1066.81 335.034 C 1059.93 360.263 1055.4 388.691 1050.17 414.543 C 1036.43 482.465 1025.08 550.137 1010.12 617.906 C 992.378 617.505 869.38 620.019 860.946 617.264 C 857.085 612.462 859.041 605.392 860.175 599.665 C 868.992 555.134 877.772 510.542 885.935 465.893 C 888.746 450.511 892.727 440.479 891.433 424.545 C 890.574 426.347 889.675 428.132 888.74 429.896 C 849.941 502.701 723.157 568.26 647.211 592.523 C 635.117 596.387 615.242 600.638 602.438 603.182 C 462.657 630.95 303.797 624.689 175.351 558.359 C 124.748 531.552 72.0237 487.466 54.2667 431.253 C 33.8133 366.504 67.9499 287.467 111.193 239.739 C 154.403 192.047 240.286 132.792 302.757 114.247 z"/>
<path transform="translate(0,0)" fill="rgb(40,95,225)" d="M 1368.73 185.453 C 1403.81 184.416 1439.02 188.497 1473.53 194.55 C 1482.4 196.107 1492.99 199.857 1501.87 199.531 C 1502.05 217.375 1497.61 232.659 1494.6 250.174 C 1490.89 271.829 1486.88 292.624 1481.57 313.963 C 1478.81 313.132 1475.79 312.052 1473.05 311.076 C 1416 290.704 1349.31 275.494 1294.46 310.445 C 1262.47 330.831 1242.7 364.106 1233.89 400.564 C 1223 445.634 1224.79 496.59 1278.8 510.309 C 1290.51 513.26 1319.15 514.051 1329.92 508.368 C 1335.55 505.393 1340.23 472.566 1341.69 464.796 L 1356.47 382.63 C 1366.31 381.351 1384.77 382.034 1395.31 382.048 C 1419.6 382.079 1443.63 382.689 1467.97 381.755 C 1467.08 393.952 1461.41 428.591 1457.61 439.753 C 1455.48 446.409 1454.79 454.938 1453.47 461.942 C 1450.13 479.516 1432.79 583.77 1426.25 590.987 C 1415.88 602.439 1341.56 615.845 1324.3 616.789 C 1269.05 619.811 1199.41 620.868 1155.52 581.406 C 1123.13 552.278 1109.84 514.296 1107.66 471.44 C 1104.19 403.458 1126 324.566 1172.31 273.379 C 1225.93 214.122 1289.87 189.406 1368.73 185.453 z"/>
<path transform="translate(0,0)" fill="rgb(40,95,225)" d="M 1909.91 185.443 C 1943.15 183.931 1966.47 187.674 1998.36 189.418 C 1998.29 198.421 1984.38 279.543 1981.58 287.686 C 1979.76 288.778 1978.45 289.022 1976.18 288.631 C 1957.67 285.291 1940.49 281.263 1921.52 281.153 C 1900.35 281.029 1869.38 287.081 1869.45 313.976 C 1869.51 336.114 1906.01 354.961 1922.62 366.148 C 1930.47 371.377 1937.87 377.25 1944.74 383.704 C 1967.08 404.91 1974.92 427.964 1976.2 458.014 C 1979.85 543.436 1914.31 602.706 1834.27 616.16 C 1821.12 618.372 1806.62 618.146 1793.25 618.462 C 1771.43 619.62 1730.35 616.585 1708.99 612.741 C 1710.27 596.765 1714.98 577.374 1718.04 561.416 C 1721.63 542.715 1724.61 523.555 1728.43 504.992 C 1757.14 512.331 1822.41 530.264 1846.51 503.329 C 1872.97 473.749 1826.63 449.944 1805.54 436.646 C 1772.54 415.838 1748.69 383.403 1747.88 343.121 C 1746.44 304.39 1755.87 268.078 1782.02 238.621 C 1816.61 199.654 1859.5 188.347 1909.91 185.443 z"/>
<path transform="translate(0,0)" fill="rgb(40,95,225)" d="M 1550.22 185.537 C 1584.67 184.204 1623.37 184.98 1658.28 184.765 C 1658.12 203.494 1645.07 261.029 1640.98 282.305 L 1596.79 508.586 C 1625.52 507.506 1656.74 509.828 1685.96 508.323 C 1685.95 510.021 1685.88 511.718 1685.75 513.411 C 1683.88 535.722 1671.59 590.159 1668.28 615.116 C 1667.57 615.717 1666.97 616.231 1666.46 616.658 C 1602.46 618.7 1534.37 616.05 1470 616.657 C 1467.78 616.678 1467.98 616.308 1466.56 614.778 C 1464.82 607.415 1525.73 303.495 1532.48 268.487 L 1542.92 213.253 C 1544.02 207.404 1546.09 187.919 1550.22 185.537 z"/>
</svg>