<svg version="1.1" xmlns="http://www.w3.org/2000/svg" style="display: block;" viewBox="0 0 2048 742" width="707" height="256" preserveAspectRatio="none">
<path transform="translate(0,0)" fill="rgb(254,254,254)" d="M 937.636 194.154 C 942.546 186.054 947.646 182.27 956.026 178.171 C 992.761 160.203 1031.53 153.493 1071.9 150.214 C 1087.06 148.984 1103.99 144.442 1119.65 143.42 C 1143.69 141.851 1167.46 138.824 1191.27 135.161 C 1209.71 132.474 1229.87 132.553 1248.51 131.033 C 1272.55 129.07 1297.02 126.91 1320.85 131.82 C 1327.56 133.243 1330.99 141.287 1333.74 146.612 C 1332.49 156.494 1329.74 165.797 1324.41 174.294 C 1320.12 181.138 1313.21 188.943 1304.9 190.616 C 1298.16 191.975 1292.51 181.612 1287.29 178.474 C 1269.22 167.598 1196.82 176.684 1174.52 178.47 C 1147.96 180.597 1121.19 181.397 1094.69 184.051 C 1079.57 185.565 1064.78 188.446 1049.76 190.459 C 1027.28 193.469 1005.09 196.4 982.965 201.741 C 977.827 202.981 974.117 204.476 971.355 209.22 C 968.931 213.383 968.868 218.071 970.187 222.61 C 973.63 234.455 991.099 263.796 1001.84 269.398 C 1022.75 280.305 1038.87 209.991 1058.82 203.713 C 1062.05 202.697 1066.56 201.739 1069.69 203.491 C 1087.73 213.585 1029.81 299.066 1035.27 319.355 C 1037.79 322.145 1079.74 323.562 1084.1 322.05 C 1120.06 309.572 1139.82 277.692 1182.52 296.009 L 1187.46 302.379 C 1187.64 304.59 1188.46 312.774 1188.36 314.64 C 1187.47 331.949 1174.24 346.454 1163.26 357.86 C 1160.74 355.867 1158.63 353.402 1157.05 350.602 C 1163.35 343.028 1171.29 328.397 1163 319.795 C 1148.04 316.029 1100.14 360.506 1105.35 376.672 C 1110.2 381.139 1124.53 377.546 1130.2 375.133 L 1134.77 375.735 C 1136.59 378.203 1135.94 378.231 1135.86 382.034 C 1129.2 383.46 1096.34 396.571 1092.94 401.73 C 1090.06 412.436 1106.49 422.268 1115.17 424.669 C 1128.95 428.477 1154.63 416.208 1165.05 407.396 C 1167.92 406.346 1169.31 405.725 1172.35 405.458 L 1172.93 406.644 C 1171.7 408.778 1167.54 415.25 1167.59 417.116 C 1157.2 431.704 1127.69 444.704 1109.73 443.309 C 1097.12 442.329 1081.97 439.134 1073.19 429.217 C 1050.87 403.99 1069.39 372.074 1070.16 343.151 C 1005.8 350.532 1017.76 343.261 990.669 400.964 C 978.249 426.785 966.204 452.784 954.537 478.954 C 943.077 504.6 929.64 525.579 925.165 553.972 C 924.871 555.833 924.326 557.58 923.101 559.044 C 914.618 562.734 900.08 557.533 891.261 554.996 C 879.311 543.161 878.217 533.189 884.089 517.287 C 898.212 479.042 922.129 444.311 939.33 407.39 C 946.526 391.942 958.651 377.449 952.474 359.735 C 941.853 325.874 950.028 328.84 978.28 325.552 C 980.351 323.692 988.266 316.795 987.837 314.284 C 980.687 272.436 934.91 239.826 937.636 194.154 z"/>
<path transform="translate(0,0)" fill="rgb(254,254,254)" d="M 363.991 303.622 C 372.237 299.287 374.061 298.048 383.04 297.09 C 434.208 291.635 399.616 333.493 409.466 344.739 C 419.321 345.853 447.303 316.443 457.673 331.914 C 469.118 348.989 446.543 384.66 438.972 400.966 C 429.539 421.283 417.65 439.476 450.211 441.613 C 453.446 432.678 454.698 424.277 460.206 416.896 C 473.776 398.712 547.787 348.342 547.118 326.853 C 541.915 318.137 512.959 322.753 507.361 316.818 C 511.344 310.848 561.509 305.562 568.866 311.675 C 575.296 317.018 577.665 322.615 580.581 330.343 C 569.692 364.332 526.759 385.706 505.815 413.323 C 503.015 417.015 500.896 424.44 503.506 428.969 C 513.1 442.651 539.909 438.131 553.016 432.988 C 557.93 431.06 566.543 420.454 569.131 414.596 C 574.608 402.197 575.694 392.167 580.894 378.721 C 593.855 345.935 620.499 299.955 660.838 301.607 C 667.738 301.89 677.17 312.369 679.88 318.115 C 695.498 351.231 680.86 369.707 666.018 398.582 C 662.13 406.146 656.631 422.168 660.566 430.687 C 662.945 436.695 673.876 432.961 677.646 435.556 C 677.674 440.323 670.936 447.326 668.154 451.253 C 662.505 459.045 655.905 466.528 645.56 466.94 C 632.76 467.448 630.254 446.028 618.338 446.389 C 610.902 446.614 600.246 450.522 592.854 452.472 C 579.076 448.374 564.258 438.355 554.503 444.588 C 537.106 455.703 531.951 468.56 508.367 461.35 C 483.202 453.656 485.298 446.648 457.366 447.025 C 443.204 460.816 395.583 486.251 397.718 444.514 C 398.65 426.296 420.171 386.94 414.935 374.063 C 400.688 362.629 350.122 441.194 340.568 452.275 C 339.032 454.056 337.491 454.097 335.394 454.531 C 331.975 453.728 329.13 452.791 327.224 449.63 C 323.77 443.903 325.531 434.227 327.206 428.107 C 332.609 408.371 381.125 326.78 374.582 314.779 C 373.83 313.401 372.773 312.737 371.378 312.11 C 370.978 311.984 370.579 311.855 370.181 311.723 C 365.864 310.298 364.422 310.173 362.652 306.668 L 363.991 303.622 z M 615.332 426.357 C 642.019 417.03 686.852 321.539 653.671 321.918 C 651.745 322.703 643.786 325.986 642.532 327.11 C 631.509 337.96 618.673 354.651 612.911 369.001 C 607.394 382.743 599.05 403.838 603.439 418.308 C 604.771 422.697 611.029 425.492 615.332 426.357 z"/>
<path transform="translate(0,0)" fill="rgb(254,254,254)" d="M 831.005 178.092 C 840.941 176.889 838.947 199.804 839.109 206.077 C 839.302 213.572 834.404 223.221 825.889 223.284 C 821.051 223.319 820.636 219.653 816.112 219.456 C 808.182 221.959 797.955 239.601 793.261 246.779 C 784.98 259.439 734.493 329.199 749.312 338.546 C 755.194 339.514 763.626 335.481 768.938 333.123 C 754.191 350.054 738.775 371.67 726.58 390.845 C 718.152 404.097 719.17 444.469 743.031 433.562 C 774.311 418.248 766.126 384.496 777.459 357.624 C 790.775 326.048 812.388 310.484 841.844 297.173 C 858.15 301.114 875.216 310.727 876.389 329.358 C 878.15 342.37 878.421 359.678 876.059 372.463 C 876.995 367.398 862.059 399.961 862.815 398.605 C 851.642 418.647 834.519 441.269 811.861 448.605 C 788.119 456.291 784.787 444.009 767.198 434.747 C 761.922 435.231 755.908 436.166 750.592 436.865 C 747.288 440.581 743.533 444.362 740.066 447.97 C 730.335 450.849 726.305 452.676 716.027 453.085 C 706.833 447.33 701.577 441.166 693.717 433.905 C 691.904 432.23 685.37 432.708 683.906 430.841 C 685.36 427.887 686.839 424.911 688.249 421.931 C 704.575 387.443 706.481 345.012 725.485 311.15 C 748.925 269.384 772.7 223.785 807.198 190.139 C 813.711 183.787 822.625 180.748 831.005 178.092 z M 815.737 426.981 C 859.372 418.51 883.779 324.094 851.91 323.104 C 814.872 336.572 794.435 383.183 800.962 420.756 C 801.773 425.429 811.863 426.489 815.737 426.981 z"/>
<path transform="translate(0,0)" fill="rgb(254,254,254)" d="M 1974.74 283.101 C 1978.71 282.657 1982.79 282.159 1986.53 283.868 C 1995.53 287.981 2009.51 312.469 2012.53 320.681 C 2008.13 352.584 1992.64 377.685 1994.95 413.022 C 1999.7 414.559 2004.48 416.015 2009.28 417.388 C 2003.12 432.965 1999.04 435.491 1988.36 448.058 L 1975.68 447.854 C 1969.49 441.637 1967.39 437.364 1962.83 429.925 C 1954.63 421.211 1929.33 446.624 1918.95 436.778 C 1888.26 407.683 1914.85 347.626 1932.56 317.566 C 1943.92 298.27 1952.94 288.622 1974.74 283.101 z M 1953.59 408.804 C 1971.61 397.895 1975.57 375.826 1982.69 357.176 C 1987.84 343.669 1988.24 325.879 1991.08 311.513 C 1984.17 306.46 1981.3 304.079 1972.18 304.905 C 1952.86 316.725 1944.06 347.077 1938.13 368.102 C 1935.35 378 1931.21 404.974 1944.65 409.149 C 1946.3 409.602 1951.58 409.012 1953.59 408.804 z"/>
<path transform="translate(0,0)" fill="rgb(254,254,254)" d="M 1501.46 270.295 C 1521.21 268.821 1539.5 273.911 1526.8 297.685 C 1520.85 307.867 1510.18 314.326 1502.43 322.796 C 1495.02 330.893 1488.5 341.355 1483.02 350.948 C 1474.76 365.397 1466.76 381.784 1463.51 398.225 C 1461.96 406.055 1459.95 423.975 1464.6 431.351 C 1467.66 436.222 1475.24 436.837 1480.58 437.628 C 1483.26 436.156 1486.43 434.567 1489.33 433.491 C 1516.23 423.575 1539.31 403.705 1567.4 397.209 C 1587.31 392.608 1612.49 387.84 1597.47 417.861 C 1592.14 418.852 1584.26 420.148 1579.05 419.209 C 1543.63 412.753 1521.32 435.681 1490.81 449.75 C 1414.43 484.984 1431.92 457.029 1409.27 407.135 C 1412.12 398.976 1418.88 389.362 1422.31 380.057 C 1431.88 354.131 1436.04 333.235 1453.6 310.962 C 1469.89 290.313 1475.09 279.101 1501.46 270.295 z"/>
<path transform="translate(0,0)" fill="rgb(254,254,254)" d="M 1221.89 326.066 C 1218.37 304.519 1214.08 279.957 1241.9 273.407 C 1257.38 275.89 1257.34 295.675 1279.13 292.048 C 1285.9 290.921 1305.28 285.226 1308.65 290.142 C 1325.05 313.993 1238.6 398.29 1257.87 417.858 C 1264.91 420.325 1268.77 417.969 1273.48 413.134 C 1286.7 399.565 1298.29 384.689 1310.49 370.239 L 1312.35 374.001 C 1301.68 389.464 1291.5 404.728 1279.67 419.486 C 1277.3 423.015 1269.69 428.128 1267.85 431.315 C 1260.45 444.128 1243.64 461.231 1227.02 455.234 C 1223.91 454.142 1221.37 451.831 1220.01 448.832 C 1210.14 427.392 1241.35 368.338 1249.28 346.905 C 1251.1 342.189 1252.63 335.657 1250.91 330.887 C 1248.67 324.63 1231.91 328.193 1227.64 330.422 C 1223.67 329.268 1224.03 329.036 1221.89 326.066 z"/>
<path transform="translate(0,0)" fill="rgb(254,254,254)" d="M 1348.69 279.819 C 1357.6 280.154 1373.74 294.621 1387.65 289.543 C 1394.08 287.195 1404.55 280.986 1410.49 284.325 C 1416.36 295.612 1380.71 359.545 1379.01 378.071 C 1376.95 400.523 1368.19 412.09 1397.82 419.057 C 1394.62 422.827 1392.37 424.879 1388.72 428.189 C 1379.59 437.002 1372.69 439.575 1361.02 442.929 L 1347.78 439.302 C 1328.63 400.987 1350.97 367.925 1353.27 327.678 C 1351.56 327.754 1349.85 327.856 1348.14 327.985 C 1339.51 328.647 1338.59 330.722 1333.01 337.23 C 1333.76 317.269 1328.22 289.39 1348.69 279.819 z"/>
<path transform="translate(0,0)" fill="rgb(254,254,254)" d="M 222.111 440.422 C 210.994 413.418 222.26 369.899 238.079 346.343 C 248.85 330.303 270.912 308.394 290.388 303.859 C 304.911 300.477 315.446 309.605 327.074 317.106 C 331.71 317.942 334.633 317.271 336.914 319.89 L 337.376 323.523 C 326.572 346.497 332.718 371.021 318.52 393.638 C 317.912 394.621 314.28 401.637 313.611 401.853 C 306.262 404.231 304.973 406.793 300.048 411.051 L 298.696 410.228 C 297.328 403.159 331.347 334.347 313.174 328.883 C 277.287 318.094 244.109 394.391 250.166 420.331 C 259.052 458.384 285.435 416.355 298.935 414.276 L 299.527 415.521 C 298.52 418.275 297.593 419.246 295.937 421.518 C 274.601 450.802 254.325 464.869 222.111 440.422 z"/>
<path transform="translate(0,0)" fill="rgb(254,254,254)" d="M 1755.15 291.141 C 1765.87 289.3 1779.14 290.155 1789.67 292.778 C 1793.37 295.201 1793.8 294.639 1795.25 298.292 C 1792.43 302.046 1789.64 300.979 1786.86 303.422 C 1781.13 306.775 1777.23 309.659 1772.53 314.3 C 1785.65 339.191 1800.66 359.217 1817.37 381.602 C 1828.21 396.11 1847.94 409.72 1837.66 430.61 C 1834.68 433.205 1810.06 441.755 1804.05 444.313 C 1795.83 447.814 1773.87 448.822 1765.75 443.345 C 1759.09 438.85 1743.4 429.468 1748.94 420.871 C 1759.85 415.651 1813.19 435.328 1796.87 400.117 C 1790.63 386.678 1777 372.059 1767.44 360.24 C 1751.96 341.125 1746.64 326.378 1743.47 302.553 C 1747.43 297.626 1750.33 295.272 1755.15 291.141 z"/>
<path transform="translate(0,0)" fill="rgb(254,254,254)" d="M 1526.76 212.313 C 1551.25 209.52 1558 229.461 1539.83 244.332 C 1532.61 250.237 1528.21 250.555 1519.24 251.757 C 1513.97 251.661 1508.11 250.584 1502.84 249.754 C 1484.86 229.156 1507.47 214.972 1526.76 212.313 z"/>
<path transform="translate(0,0)" fill="rgb(254,254,254)" fill-opacity="0.980392" d="M 1667.27 428.853 C 1690.47 427.16 1689.47 445.872 1680.76 461.22 C 1677.37 463.437 1676.35 464.259 1672.85 463.888 C 1665.71 459.392 1664.39 435.975 1667.27 428.853 z"/>
<path transform="translate(0,0)" fill="rgb(254,254,254)" fill-opacity="0.956863" d="M 1130.2 375.133 C 1136.5 367.803 1154.36 357.451 1157.05 350.602 C 1158.63 353.402 1160.74 355.867 1163.26 357.86 C 1160.95 359.982 1135.77 382.18 1135.86 382.034 C 1135.94 378.231 1136.59 378.203 1134.77 375.735 L 1130.2 375.133 z"/>
<path transform="translate(0,0)" fill="rgb(254,254,254)" fill-opacity="0.490196" d="M 327.074 317.106 C 338.637 315.735 354.018 309.456 363.991 303.622 L 362.652 306.668 C 364.422 310.173 365.864 310.298 370.181 311.723 C 370.579 311.855 370.978 311.984 371.378 312.11 C 363.718 311.038 340.45 316.446 337.376 323.523 L 336.914 319.89 C 334.633 317.271 331.71 317.942 327.074 317.106 z"/>
<path transform="translate(0,0)" fill="rgb(254,254,254)" fill-opacity="0.858824" d="M 1789.67 292.778 C 1800.18 293.945 1799.01 292.636 1802.87 299.856 C 1803.59 301.209 1812.34 303.662 1815.94 307.181 L 1815.36 308.074 C 1808.01 308.62 1794.82 304.736 1786.86 303.422 C 1789.64 300.979 1792.43 302.046 1795.25 298.292 C 1793.8 294.639 1793.37 295.201 1789.67 292.778 z"/>
<path transform="translate(0,0)" fill="rgb(254,254,254)" fill-opacity="0.811765" d="M 1190.49 384.897 C 1192.56 385.029 1193.14 384.936 1194.7 386.245 C 1190.22 394.381 1182.22 398.805 1176.11 405.904 C 1172.87 409.673 1171.01 414.643 1167.59 417.116 C 1167.54 415.25 1171.7 408.778 1172.93 406.644 L 1172.35 405.458 C 1169.31 405.725 1167.92 406.346 1165.05 407.396 C 1176.73 400.053 1180.14 392.608 1190.49 384.897 z"/>
<path transform="translate(0,0)" fill="rgb(254,254,254)" fill-opacity="0.152941" d="M 1221.89 326.066 C 1224.03 329.036 1223.67 329.268 1227.64 330.422 C 1222.5 339.548 1222.39 346.164 1215.27 351.218 C 1215.14 344.088 1222.71 343.296 1221.89 326.066 z"/>
<path transform="translate(0,0)" fill="rgb(254,254,254)" fill-opacity="0.333333" d="M 1190.49 384.897 C 1195.21 378.178 1198.15 373.357 1204.19 367.667 C 1204.37 370.011 1196.62 384.553 1194.7 386.245 C 1193.14 384.936 1192.56 385.029 1190.49 384.897 z"/>
<path transform="translate(0,0)" fill="rgb(254,254,254)" fill-opacity="0.521569" d="M 1310.49 370.239 C 1312.28 366.83 1313.97 362.939 1316.8 360.417 L 1318.6 360.268 C 1319.77 365.154 1315.65 370.529 1312.35 374.001 L 1310.49 370.239 z"/>
<path transform="translate(0,0)" fill="rgb(255,255,255)" fill-opacity="0.0117647" d="M 677.135 400.425 L 678.197 401.321 C 679.641 405.008 679.495 413.84 678.664 417.932 C 673.348 411.451 676.605 410.186 677.135 400.425 z"/>
<path transform="translate(0,0)" fill="rgb(255,255,255)" fill-opacity="0.239216" d="M 696.922 348.328 L 698.991 349.561 C 700.426 353.181 699.568 354.446 698.956 358.624 L 697.397 358.477 C 695.984 355.9 696.713 351.441 696.922 348.328 z"/>
<path transform="translate(0,0)" fill="rgb(254,254,254)" d="M 11.7169 417.334 C 17.4858 397.838 29.646 376.98 39.0372 358.522 C 62.7296 311.954 89.8805 263.811 119.524 220.762 C 146.938 180.951 182.313 144.29 213.013 107.005 C 226.517 91.3596 238.797 90.6215 256.46 100.464 C 261.521 107.744 262.223 111.249 264.21 119.894 C 262.745 123.228 261.361 126.585 259.524 129.729 C 254.441 130.731 249.2 131.382 245.3 134.816 C 229.226 148.97 217.387 166.074 204.629 182.938 C 197.217 192.735 188.984 201.576 181.453 211.413 C 159.483 240.406 138.419 270.073 118.289 300.373 C 111.64 310.28 88.4659 345.153 91.3211 355.547 C 105.579 364.8 196.003 297.203 208.258 344.116 C 209.665 349.502 209.145 357.638 208.039 363.156 C 201.666 393.823 190.189 420.899 179.1 449.69 L 137.445 559.42 C 134.65 566.996 131.871 574.454 129.451 582.173 C 128.883 583.985 126.511 588.396 126.232 589.735 C 123.751 595.984 122.249 601.579 120.455 608.01 C 116.551 621.542 119.798 625.826 120.993 639.077 C 121.469 644.347 118.51 646.733 115.049 650.465 C 108.221 651.652 89.68 655.861 86.3733 647.573 C 76.0854 621.787 88.9031 589.455 96.87 564.51 C 109.145 526.752 122.315 489.29 136.368 452.158 C 140.036 442.394 160.215 395.331 155.4 387.222 C 132.848 373.293 47.3453 448.841 19.0896 453.35 C 10.1382 454.779 9.34055 454.472 0 453.005 L 0 425.802 L 11.7169 417.334 z"/>
<path transform="translate(0,0)" fill="rgb(254,254,254)" fill-opacity="0.984314" d="M 2048 419.696 L 2048 439.368 C 2031.47 436.924 2026.35 417.919 2048 419.696 z"/>
<path transform="translate(0,0)" fill="rgb(254,254,254)" fill-opacity="0.0470588" d="M 126.232 589.735 C 125.846 597.156 127.965 609.137 125.024 613.269 L 123.199 613.005 L 120.455 608.01 C 122.249 601.579 123.751 595.984 126.232 589.735 z"/>
</svg>