<svg version="1.1" xmlns="http://www.w3.org/2000/svg" style="display: block;" viewBox="0 0 1400 1400" width="350" height="350" preserveAspectRatio="none">
<path transform="translate(0,0)" fill="rgb(235,235,234)" d="M 0 0 L 1400 0 L 1400 1400 L 0 1400 L 0 0 z"/>
<path transform="translate(0,0)" fill="rgb(38,37,38)" d="M 354.98 354.543 C 367.183 355.518 388.716 354.883 401.564 354.884 L 491.117 354.862 L 491.074 551.827 L 674.563 551.691 L 674.702 354.8 L 812.061 354.883 C 811.291 417.454 811.846 481.178 811.843 543.84 L 811.934 871.747 L 792.5 871.886 L 674.783 871.961 C 673.852 799.918 674.928 727.007 674.482 654.849 C 614.138 653.951 551.578 654.623 491.093 654.793 C 490.147 726.686 491.198 799.855 490.82 871.9 L 354.794 871.913 C 354.472 850.776 354.479 829.007 354.721 807.856 C 356.443 657.042 352.314 505.262 354.98 354.543 z"/>
<path transform="translate(0,0)" fill="rgb(134,168,29)" d="M 847.468 742.922 L 1050.06 742.902 L 1050.11 831.077 C 1050.12 838.843 1050.6 866.485 1049.28 872.504 C 982.326 871.424 915.047 872.608 848.027 872.033 C 846.627 861.313 847.173 836.153 847.214 824.066 C 847.305 797.375 846.764 769.502 847.468 742.922 z"/>
<path transform="translate(0,0)" fill="rgb(134,168,29)" d="M 847.145 355.062 C 869.313 356.138 899.096 355.14 922.036 355.114 L 1050.18 355.175 C 1049.86 398.164 1049.79 441.155 1049.98 484.145 C 983.059 483.307 914.608 483.998 847.587 484.026 C 846.73 470.017 847.288 450.575 847.295 436.18 L 847.145 355.062 z"/>
<path transform="translate(0,0)" fill="rgb(134,168,29)" d="M 847.257 553.257 C 914.415 552.51 982.776 552.938 1049.99 553.145 C 1049.32 595.678 1049.84 639.392 1050 681.958 L 847.362 681.914 C 846.724 639.822 847.365 595.585 847.257 553.257 z"/>
<path transform="translate(0,0)" fill="rgb(38,37,38)" d="M 713.163 987.119 C 731.655 987.47 766.623 982.475 762.016 1012.24 C 761.091 1018.22 755.238 1021.75 750.698 1025.02 C 756.702 1031.87 761.408 1041.58 765.608 1049.72 C 760.363 1049.26 754.985 1049.4 749.71 1049.44 L 748.779 1049.5 C 745.549 1048.13 737.771 1031.26 730.314 1023.63 C 729.202 1032.61 729.277 1040.13 729.222 1049.16 L 713.241 1049.28 C 712.95 1028.56 712.924 1007.84 713.163 987.119 z"/>
<path transform="translate(0,0)" fill="rgb(235,235,234)" d="M 729.157 999.88 C 735.591 999.813 741.796 999.104 745.62 1004.99 C 745.904 1008.77 745.467 1009.3 743.514 1012.61 C 738.078 1014.18 734.746 1016.32 730.17 1012.54 C 728.553 1008.65 729.082 1004.23 729.157 999.88 z"/>
<path transform="translate(0,0)" fill="rgb(38,37,38)" d="M 590.177 987.19 L 606.128 987.149 L 606.275 1010.79 L 628.096 1010.98 L 628.156 987.186 L 644.201 987.357 C 644.298 996.502 645.547 1044.2 643.209 1049.01 L 640.746 1049.57 L 628.093 1049.11 L 628.016 1023.35 C 620.764 1023.46 613.511 1023.47 606.259 1023.39 L 606.101 1049.36 C 600.884 1049.26 595.379 1049.35 590.134 1049.35 L 590.177 987.19 z"/>
<path transform="translate(0,0)" fill="rgb(38,37,38)" d="M 1022.86 986.326 C 1033.18 986.014 1045.79 988.628 1049.58 999.756 C 1049.21 1003.44 1049.77 1002.04 1047.39 1005 C 1043.67 1007.06 1040.21 1006.62 1035.85 1006.67 C 1032.15 1001.31 1028.63 997.072 1020.52 999.711 C 1018.86 1000.25 1019.25 1000.56 1018.64 1002.26 C 1023.85 1013.86 1073.73 1020.81 1039.35 1048.67 C 1034.48 1049.7 1029.92 1049.77 1024.96 1050.01 C 1013.94 1050.13 1006.89 1047.98 999.606 1039.21 C 996.168 1035.07 998.766 1028.92 1003.15 1026.47 C 1011.83 1025.87 1027.95 1049.41 1032.97 1032.71 C 1028.85 1023.29 987.651 1019.56 1005.73 993.795 C 1009.84 987.948 1016.3 987.063 1022.86 986.326 z"/>
<path transform="translate(0,0)" fill="rgb(38,37,38)" d="M 792.3 987.086 L 807.165 987.229 C 813.774 1000.34 825.18 1033.88 830.608 1049.21 C 825.23 1049.03 818.92 1049.42 813.47 1049.63 C 812.57 1045.7 811.872 1040.91 809.743 1037.66 L 807.25 1037.19 L 789.838 1037.02 C 788.874 1040.96 787.412 1045.62 786.281 1049.6 C 779.751 1049.37 775.535 1049.35 769.035 1049.83 C 775.966 1029.35 784.555 1007.35 792.3 987.086 z"/>
<path transform="translate(0,0)" fill="rgb(235,235,234)" d="M 799.104 1005.42 L 801.036 1007.13 C 802.794 1012 806.837 1021.75 802.906 1025.63 C 798.692 1025.19 797.636 1025.66 795.462 1023.12 C 794.261 1017.95 797.4 1010.81 799.104 1005.42 z"/>
<path transform="translate(0,0)" fill="rgb(38,37,38)" d="M 658.786 987.21 C 673.469 987.393 688.155 987.438 702.839 987.343 C 702.867 991.539 702.716 995.982 702.644 1000.2 C 694.41 1000.05 678.682 998.274 673.396 1005.5 L 674.405 1007.32 C 681.834 1012.2 692.016 1011.13 700.889 1011.09 L 700.768 1023.75 C 691.953 1023.75 683.635 1023.78 674.826 1024.16 C 674.671 1027.96 674.013 1031.3 675.938 1034.36 C 681.488 1038.52 695.096 1036.29 703.801 1036.24 L 703.901 1049.04 L 658.496 1049.04 C 658.323 1028.43 658.419 1007.82 658.786 987.21 z"/>
<path transform="translate(0,0)" fill="rgb(38,37,38)" d="M 948.834 987.241 C 963.607 987.487 978.382 987.513 993.156 987.319 L 992.901 1000.1 C 984.261 1000 970.938 998.823 963.884 1003.81 L 964.398 1007.58 C 972.95 1011.98 981.412 1011 990.993 1010.94 L 990.814 1023.86 L 965.255 1023.89 C 965.193 1027.83 965.332 1032.1 965.384 1036.07 C 975.016 1036.45 984.341 1036.37 993.976 1036.32 C 994.396 1040.14 994.541 1045.04 994.756 1048.97 L 949.077 1049.12 C 948.874 1028.5 948.793 1007.87 948.834 987.241 z"/>
<path transform="translate(0,0)" fill="rgb(38,37,38)" d="M 855.912 986.245 C 857.616 986.196 859.322 986.181 861.027 986.198 C 869.759 986.306 877.763 988.985 884.022 995.227 C 888.103 999.296 888.129 1006.67 883.795 1010.5 C 876.509 1011.88 868.402 999.332 860.93 999.319 C 838.835 999.281 848.354 1055.23 870.558 1033.23 C 871.746 1032.05 871.176 1027.45 874.046 1024.72 C 880.377 1024.7 882.185 1023.92 886.797 1027.55 C 890.423 1034.83 885.636 1039.62 879.973 1044.08 C 870.169 1051.81 858.526 1050.45 846.875 1048.62 C 844.672 1046.85 840.632 1043.75 839.056 1041.59 C 824.55 1021.72 829.61 991.539 855.912 986.245 z"/>
<path transform="translate(0,0)" fill="rgb(38,37,38)" d="M 414.086 987.234 C 419.651 987.269 430.284 986.884 435.168 988.243 C 457.321 994.406 453.039 1011.9 436.433 1021.54 C 440.178 1027.53 451.388 1042.98 451.273 1048.99 L 449.869 1049.59 C 445.691 1047.97 446.948 1048.52 444.079 1044.31 C 439.039 1036.67 433.753 1025.13 426.105 1020.92 C 422.823 1020.6 424.261 1020.2 421.643 1022.16 C 415.83 1032.41 422.75 1044.5 415.937 1050.53 L 414.511 1049.43 C 412.808 1044.79 413.977 995.732 414.086 987.234 z"/>
<path transform="translate(0,0)" fill="rgb(235,235,234)" d="M 419.363 992.043 C 433.681 992.068 453.037 994.242 440.686 1013.88 C 433.239 1018.49 427.789 1017.31 418.953 1017.15 C 418.932 1008.78 419.068 1000.41 419.363 992.043 z"/>
<path transform="translate(0,0)" fill="rgb(38,37,38)" d="M 897.249 987.802 C 902.361 987.599 907.832 987.648 912.975 987.601 C 913.559 1003.1 913.301 1020.65 913.397 1036.31 C 923.113 1036.32 931.856 1036.44 941.552 1036.95 C 941.844 1040.81 941.404 1045.1 941.149 1049 L 897.398 1049.19 C 896.187 1032 897.046 1005.37 897.249 987.802 z"/>
<path transform="translate(0,0)" fill="rgb(38,37,38)" d="M 520.55 987.431 C 531.189 986.887 543.344 986.082 551.959 993.66 C 558.801 999.679 560.045 1009.8 553.351 1016.53 C 545.878 1024.05 535.797 1023.61 525.933 1023.71 C 526.081 1029.67 527.23 1044.23 523.656 1048.57 C 519.64 1044.95 520.761 1028.86 520.902 1023.16 C 520.488 1011.32 521.262 999.206 520.55 987.431 z"/>
<path transform="translate(0,0)" fill="rgb(235,235,234)" d="M 526.037 992.987 C 557.172 982.9 561.806 1027.57 524.904 1017.9 C 526.353 1013.64 526.027 998.485 526.037 992.987 z"/>
<path transform="translate(0,0)" fill="rgb(38,37,38)" d="M 371.105 987.194 C 382.146 986.116 388.932 985.783 396.155 995.432 C 398.046 997.957 398.152 1000.26 397.709 1003.2 L 396.205 1003.75 C 390.079 1000.22 389.049 991.517 381.919 990.725 C 356.577 987.911 351.993 1035.54 372.105 1043.66 C 379.436 1046.62 386.607 1048.1 392.652 1041.44 C 395.965 1037.79 394.97 1033.37 394.755 1028.75 C 394.596 1022.88 388.191 1024.92 382.554 1021.12 L 382.658 1020.03 C 388.456 1018.65 393.863 1018.89 399.792 1018.88 C 399.703 1026.1 400.698 1034.55 399.871 1041.6 C 398.863 1050.18 381.251 1050.81 374.869 1049.59 C 368.644 1048.4 363.161 1044.76 359.657 1039.48 C 348.316 1022.75 353.692 998.172 371.105 987.194 z"/>
<path transform="translate(0,0)" fill="rgb(38,37,38)" d="M 464.955 986.318 C 479 990.886 455.826 1040.29 480.442 1045.1 C 515.597 1051.96 490.94 995.348 503.687 987.335 L 505.655 988.284 L 505.486 991.25 C 505.687 1007.18 506.031 1023.05 504.733 1038.93 C 494.719 1055.34 474.647 1054.15 464.272 1038.51 C 463.237 1029.34 462.894 994.089 464.955 986.318 z"/>
</svg>