<svg version="1.1" xmlns="http://www.w3.org/2000/svg" style="display: block;" viewBox="0 0 1200 1200" width="300" height="300" preserveAspectRatio="none">
<path transform="translate(0,0)" fill="rgb(38,36,38)" d="M 573.59 254.966 C 617.916 252.863 667.019 256.176 712.256 253.931 C 713.308 378.176 711.052 503.322 712.391 627.511 C 712.824 659.277 713.629 691.037 714.807 722.784 C 715.377 738.707 718.261 764.935 715.517 779.229 C 693.691 777.054 667.075 777.053 645.118 776.971 C 634.313 776.983 584.268 779.695 578.779 776.332 C 572.705 761.971 573.922 583.107 574.261 555.104 C 523.265 554.218 472.017 555.328 420.999 554.975 C 411.167 554.907 400.997 555.448 391.262 554.218 C 391.188 579.906 393.508 767.307 390.304 773.505 C 384.774 774.726 325.094 772.288 316.412 772.151 C 297.512 771.853 274.079 772.054 254.618 772.183 C 252.563 600.072 256.12 426.709 253.993 254.861 L 306.512 254.493 C 317.483 254.487 383.574 253.715 389.846 255.281 C 391.943 263.514 391.429 309.41 391.331 321.948 C 390.992 364.948 392.063 409.236 391.035 452.096 C 423.633 450.842 457.373 451.139 490.076 451.257 C 517 451.355 547.072 450.848 573.822 452.251 C 573.303 438.599 574.046 420.542 574.07 406.343 L 574.152 306.813 C 574.155 290.839 574.788 270.387 573.59 254.966 z"/>
<path transform="translate(0,0)" fill="rgb(135,169,31)" d="M 767.546 640.158 C 793.122 638.154 826.007 639.029 852.315 638.997 C 878.284 638.965 912.013 638.063 937.197 640.037 C 941.849 639.845 948.558 640.671 953.348 641.112 C 954.652 687.148 954.97 731.725 957.304 777.854 C 919.112 780.117 878.416 778.215 839.973 779.095 C 825.164 779.433 760.183 783.06 749.404 777.13 C 747.936 773.142 746.579 765.2 746.562 761.247 C 746.49 744.804 743.355 652.161 746.449 642.514 C 750.977 639.92 761.96 640.153 767.546 640.158 z"/>
<path transform="translate(0,0)" fill="rgb(164,181,91)" d="M 767.546 640.158 C 793.122 638.154 826.007 639.029 852.315 638.997 C 878.284 638.965 912.013 638.063 937.197 640.037 C 933.83 643.888 932.87 644.483 927.755 644.777 C 898.544 646.452 869.486 645.398 840.147 645.585 C 819.149 645.718 795.917 646.4 774.97 644.979 C 772.789 644.831 769.318 641.681 767.546 640.158 z"/>
<path transform="translate(0,0)" fill="rgb(135,169,31)" d="M 745.313 252.845 C 752.778 254.752 816.944 253.029 829.222 253.014 L 901.639 253.125 C 917.819 253.301 937.253 254.105 953.131 253.263 C 951.324 275.507 953.034 297.108 953.053 319.19 C 953.07 339.954 952.4 363.478 950.729 384.077 C 945.921 386.554 900.426 385.164 891.442 385.151 C 842.996 384.683 794.546 385.069 746.115 386.309 C 742.601 345.503 741.983 293.811 745.313 252.845 z"/>
<path transform="translate(0,0)" fill="rgb(135,169,31)" d="M 745.279 452.775 C 781.926 452.389 818.233 451.207 854.913 451.202 C 886.535 451.198 919.663 453.288 950.977 452.583 C 951.924 480.774 952.292 508.982 952.082 537.188 C 952.032 552.046 952.462 568.455 951.007 583.251 L 745.199 583.121 L 744.998 569.283 C 743.864 563.49 743.916 550.54 743.66 544.049 C 742.804 522.339 742.68 501.204 744.046 479.515 C 743.764 470.288 744.275 461.965 745.279 452.775 z"/>
<path transform="translate(0,0)" fill="rgb(164,181,91)" d="M 744.046 479.515 C 750.521 487.205 748.767 559.134 744.998 569.283 C 743.864 563.49 743.916 550.54 743.66 544.049 C 742.804 522.339 742.68 501.204 744.046 479.515 z"/>
</svg>