<svg version="1.1" xmlns="http://www.w3.org/2000/svg" style="display: block;" viewBox="0 0 1920 1040" width="480" height="260" preserveAspectRatio="none">
<path transform="translate(0,0)" fill="rgb(234,81,13)" d="M 685.49 63.9694 C 696.408 64.4852 733.751 84.7753 744.394 91.7402 C 839.192 153.779 832.506 242.211 787.974 335.528 C 772.408 367.971 754.072 397.666 741.699 431.638 C 707.218 526.318 728.502 640.528 816.646 697.999 C 837.438 711.556 858.271 721.247 881.666 729.849 C 899.282 736.326 919.696 737.545 935.128 747.758 C 925.969 747.813 919.245 747.206 910.103 746.282 C 833.562 738.164 758.827 721.491 695.803 675.06 C 597.232 602.443 594.186 485.223 645.782 383.224 C 692.338 291.188 777.031 177.525 695.872 79.5482 C 692.732 75.7573 686.144 68.1858 685.49 63.9694 z"/>
<path transform="translate(0,0)" fill="rgb(251,178,36)" d="M 1092.05 284.032 C 1102.77 284.106 1119.41 294.211 1128.94 299.345 C 1231.63 354.652 1336.6 498.434 1272.44 615.806 C 1237.4 679.899 1161.09 711.552 1094.17 730.115 C 1081.49 733.549 1002.55 751.658 997.04 745.717 C 1000.18 741.107 1019.24 735.206 1025.45 732.712 C 1040.67 726.673 1055.37 719.425 1069.42 711.037 C 1216.34 622.19 1201.79 429.378 1110.64 304.713 C 1106.02 298.394 1095.21 289.786 1092.05 284.032 z"/>
<path transform="translate(0,0)" fill="rgb(1,123,167)" d="M 499.02 839.431 C 527.903 837.472 555.121 842.891 578.11 861.594 C 619.36 895.153 617.678 963.859 585.416 1002.86 C 567.45 1024.58 541.477 1034.97 513.733 1037.48 C 507.798 1037.62 502.051 1037.68 496.118 1037.49 C 444.391 1035.8 405.644 995.477 402.611 944.431 C 400.958 917.494 410.04 890.998 427.87 870.739 C 447.281 849.117 470.595 840.922 499.02 839.431 z M 520.931 1023.41 C 562.443 1017.35 572.223 980 572.716 943.812 C 573.388 894.377 546.478 848.904 491.535 852.325 C 476.52 855.318 458.967 862.682 451.398 876.804 C 421.078 933.373 443.61 1028.4 520.931 1023.41 z"/>
<path transform="translate(0,0)" fill="rgb(1,123,167)" d="M 1069.03 841.88 C 1095.14 844.795 1124.72 841.507 1151.87 842.611 C 1182.78 843.867 1209.72 857.367 1208.11 893.251 C 1207.1 915.507 1190.39 931.673 1174.53 945.7 C 1192.98 962.532 1215.88 1002.02 1239.02 1018.78 C 1249.76 1026.55 1260.04 1026.62 1266.79 1030.88 L 1266.74 1032.47 C 1261.66 1035.48 1242.33 1034.66 1235.41 1034.66 C 1214.28 1034.64 1206.41 1027.4 1192.86 1013.35 C 1179.42 996.346 1161.88 969.217 1148.83 955.306 C 1140.53 955.396 1132.23 955.286 1123.93 954.974 C 1124.02 974.788 1123.48 1001.56 1126.8 1021.3 C 1127.58 1025.95 1143.2 1027.57 1149.53 1031.34 L 1149.63 1032.65 C 1147.79 1033.63 1143.43 1034.81 1141.63 1034.64 C 1128.12 1033.39 1084.22 1035.87 1073.24 1033.05 L 1072.58 1031.61 C 1076.96 1026.96 1087.04 1027.35 1091.57 1020.02 C 1093.86 1008.96 1094.31 861.991 1091.64 854.879 C 1088.72 847.084 1076.18 849.839 1069.82 847.117 C 1068.06 844.372 1068.39 845.697 1069.03 841.88 z M 1159.42 940.817 C 1161.35 938.988 1165.51 935.241 1167.02 933.374 C 1181.79 913.415 1181.6 878.685 1160.76 862.656 C 1149.22 853.778 1136.77 857.108 1123.9 855.414 C 1124.24 879.561 1125 916.939 1123.89 940.862 C 1135.37 941.47 1148.23 942.868 1159.42 940.817 z"/>
<path transform="translate(0,0)" fill="rgb(1,123,167)" d="M 168.881 837.187 C 172.901 837.448 175.826 839.883 178.517 842.763 C 213.303 880.002 249.037 916.292 284.846 952.562 C 292.65 960.466 308.66 979.12 316.753 984.379 L 316.664 983.75 C 313.873 963.423 315.035 861.948 310.625 853.878 C 307.617 848.372 296.249 848.872 290.839 846.913 C 289.115 846.289 288.713 846.282 287.891 844.543 C 291.865 841.506 310.605 842.935 316.455 843.005 C 324.329 843.099 348.585 840.661 353.725 844.831 L 353.065 846.414 C 348.749 849.168 341.989 849.62 336.748 850.381 C 335.406 858.416 334.925 866.399 334.891 874.545 C 334.695 920.303 331.917 965.965 332.08 1011.72 C 332.105 1018.83 332.729 1032.7 329.221 1038.4 C 329.061 1038.36 328.899 1038.34 328.741 1038.29 C 328.48 1038.22 328.224 1038.13 327.965 1038.05 C 320.23 1035.72 231.07 943.852 218.708 930.815 C 206.777 918.233 195.553 904.999 183.588 892.473 C 187.441 920.537 185.622 951.636 187.407 980.26 C 187.975 989.365 186.496 1016.4 192.964 1024.23 C 195.553 1027.36 209.423 1027.37 214.377 1031.19 L 213.988 1032.48 C 206.354 1035.48 146.909 1036.2 142.874 1030.74 C 145.911 1027.1 157.759 1026.61 164.467 1024.74 C 165.899 986.118 167.052 947.49 167.926 908.856 C 168.301 885.348 167.695 860.535 168.881 837.187 z"/>
<path transform="translate(0,0)" fill="rgb(1,123,167)" d="M 928.325 835.28 C 936.616 839.898 949.201 876.48 953.42 886.992 L 983.965 963.065 C 991.075 980.932 1000.11 1007.75 1012.53 1022.1 C 1019.4 1030.03 1027.8 1025.86 1034.71 1030.29 L 1034.83 1031.91 C 1032.41 1034.04 1032.57 1033.9 1028.65 1034.22 C 1019.61 1034.96 973.828 1036.13 968.512 1032.05 C 969.429 1028.4 970.556 1028.25 973.576 1025.12 C 968.768 1008.93 957.982 982.296 951.323 966.86 C 940.828 968.206 928.458 967.933 917.75 967.989 C 910.53 968.125 900.54 968.269 893.656 966.912 C 889.419 982.9 877.225 1005.42 875.634 1022.02 C 875.306 1025.44 888.91 1027.9 893.67 1031.39 L 893.034 1032.73 C 881.143 1036.63 861.753 1032.78 848.893 1034.3 C 842.83 1035.03 831.093 1036.01 826.567 1031.79 L 826.863 1029.76 C 829.109 1028.61 842.065 1026.21 846.607 1024.87 C 857.423 1014.5 869.001 980.789 874.873 966.032 L 904.424 891.7 C 912.172 872.208 918.932 854.039 928.325 835.28 z M 923.25 954.587 C 932.747 954.24 938.316 953.826 947.686 955.162 C 944.244 946.348 926.112 893.498 922.11 890.441 C 917.191 906.878 911.139 922.997 905.11 939.057 C 903.83 942.469 899.013 952.045 899.575 954.499 C 907.466 954.573 915.358 954.602 923.25 954.587 z"/>
<path transform="translate(0,0)" fill="rgb(1,123,167)" d="M 1281.7 839.301 C 1294.35 839.989 1306.4 843.477 1320.49 843.054 C 1362.33 841.8 1406.56 846.16 1448.02 840.082 C 1447.92 847.679 1448.57 875.482 1443.53 879.518 C 1441.41 878.033 1438.13 869.175 1436.51 865.757 C 1422.48 855.115 1397.52 858.698 1379.18 857.505 C 1380.4 869.151 1379.95 887.751 1379.95 899.801 L 1379.88 970.755 C 1379.89 986.171 1379.57 1003.94 1382.4 1018.98 C 1383.27 1030.03 1400.1 1025.8 1406.74 1031.34 L 1406.13 1032.96 C 1400.23 1036.86 1359.66 1032.73 1349.32 1034.24 C 1344.88 1034.88 1328.59 1034.66 1325.23 1031.65 L 1325.66 1030.16 C 1330.46 1027.09 1337.3 1027.49 1343.47 1024.95 C 1350.13 1012.39 1343.79 882.458 1348.13 857.941 C 1334.6 857.913 1301.43 857.052 1288.55 862.562 C 1285.64 863.806 1282.93 874.553 1278.88 878.448 L 1276.94 878.321 C 1274.92 873.229 1280.43 847.102 1281.7 839.301 z"/>
<path transform="translate(0,0)" fill="rgb(1,123,167)" d="M 1712.47 839.478 C 1722.58 838.957 1745.97 839.027 1754.4 844.185 C 1757.03 849.641 1756.03 875.98 1755.28 882.784 L 1754.05 883.734 C 1748.16 880.839 1743.41 850.565 1718.88 851.545 C 1702.52 852.199 1685.82 857.776 1686.42 877.503 C 1687.15 901.18 1722.65 916.388 1736.92 932.599 C 1749.1 944.747 1762.86 961.951 1762.1 980.587 C 1760.2 1027 1724.74 1037.85 1687.09 1038.16 C 1680.65 1037.96 1661.56 1033.6 1657.69 1029.22 C 1654 1025.05 1655.54 984.319 1658.58 981.177 C 1663.86 982.98 1663.9 1005.99 1673.17 1014.04 C 1688.53 1027.39 1713.68 1029.15 1727.56 1012.63 C 1751.69 983.911 1710.33 957.268 1690.96 941.497 C 1675.48 928.893 1661.79 911.711 1660.41 890.886 C 1659.53 878.567 1663.67 866.415 1671.88 857.192 C 1682.71 845.076 1696.74 840.331 1712.47 839.478 z"/>
<path transform="translate(0,0)" fill="rgb(1,123,167)" d="M 1510.03 842.124 C 1522.35 843.427 1576.69 840.8 1581.98 844.494 C 1582.68 844.981 1582.54 845.536 1582.68 846.332 C 1580.42 847.847 1567.91 849.74 1564.15 850.46 C 1563.18 855.037 1562.56 859.68 1562.29 864.35 C 1559.62 912.879 1563.35 965.47 1562.5 1014.28 C 1562.21 1030.9 1582.44 1024.83 1588.04 1031.07 C 1587.7 1033.63 1588.18 1032.67 1585.76 1034.56 C 1576.73 1035.31 1512.73 1035.37 1508.53 1032.57 L 1508.87 1030.71 C 1512.95 1027.52 1520.22 1026.56 1525.86 1023.54 C 1532.23 1014.04 1527 907.041 1528.91 890.819 C 1529.71 884.019 1528.62 865.627 1528 857.86 C 1527.09 846.398 1515.15 851.011 1509.16 846.743 C 1508.42 843.978 1508.32 845.181 1510.03 842.124 z"/>
<path transform="translate(0,0)" fill="rgb(1,123,167)" d="M 901.416 0 L 1014.32 0 C 1013.31 23.9265 1010.94 46.8226 1008.99 70.5787 C 1006.54 103.886 1003.86 137.177 1000.96 170.449 L 977.792 456.313 L 969.198 556.661 C 968.644 562.914 968.854 592.539 963.545 594.66 C 960.895 591.968 955.999 535.395 955.164 526.573 L 946.06 438.019 L 912.225 107.639 C 908.52 72.7388 905.773 34.3399 901.416 0 z"/>
<path transform="translate(0,0)" fill="rgb(1,123,167)" d="M 651.409 851.848 C 644.228 849.435 635.096 848.279 629.973 846.018 L 629.501 844.914 C 632.986 840.58 660.974 842.927 668.251 842.872 C 677.319 842.803 689.377 841.803 698.181 842.354 C 701.733 842.55 705.24 843.244 708.599 844.416 L 709.269 845.648 C 705.317 848.856 698.283 849.243 693.219 850.647 C 702.223 884.789 717.195 917.154 729.106 950.382 C 732.878 960.905 739.824 977.314 742.423 987.904 C 752.728 966.594 763.242 937.992 772.134 915.548 C 779.708 896.432 791.053 869.687 796.615 850.682 C 790.553 849.871 784.807 849.561 779.465 846.622 L 778.308 845.098 C 782.803 840.931 837.549 842.413 845.817 843.471 C 837.52 848.073 830.864 847.982 822.502 851.479 C 811.856 867.841 803.392 890.638 795.318 909.008 L 754.919 1000.41 C 751.346 1008.5 740.703 1034.17 736.028 1040 L 733.449 1040 C 715.181 1001.81 700.497 961.327 683.876 922.433 C 676.353 904.829 662.478 865.422 651.409 851.848 z"/>
</svg>