<svg version="1.1" xmlns="http://www.w3.org/2000/svg" style="display: block;" viewBox="0 0 2048 2048" width="512" height="512" preserveAspectRatio="none">
<path transform="translate(0,0)" fill="rgb(255,255,255)" d="M 449.877 353.135 C 465.286 352.406 483.989 352.874 499.683 352.888 L 587.941 352.921 L 859.392 352.924 L 1136.05 352.91 C 1183.95 352.902 1242.02 351.364 1289.04 353.585 C 1378.01 356.998 1461.84 396.167 1521.55 462.222 C 1581.27 528.399 1612.03 615.72 1606.96 704.715 C 1603.82 765.249 1583.93 823.722 1549.52 873.624 C 1521.7 914.109 1492.13 937.784 1456.21 970.381 L 1365.33 1052.95 L 1049.62 1339.91 L 738.886 1622.53 L 658.02 1696.1 C 648.531 1704.78 623.069 1729.29 614.029 1734.83 C 595.092 1736.45 552.116 1735.19 531.896 1735.18 L 366.181 1735.12 C 345.841 1735.12 309.654 1734.12 290.55 1736.05 L 290.581 915.738 L 290.558 656.39 C 290.532 610.543 289.273 557.551 290.923 512.221 C 297.853 503.051 312.192 489.548 320.691 481.043 L 373.249 428.472 L 420.927 380.827 C 428.417 373.346 442.032 359.004 449.877 353.135 z M 608.997 1310.18 L 966.96 984.692 L 1197.66 774.932 L 1252.55 725.047 C 1262.17 716.296 1284.03 697.596 1290.36 687.954 C 1290.25 683.323 1288.03 678.565 1284.97 675.046 C 1282.58 672.297 1278.27 671.547 1274.66 671.441 C 1253.21 670.812 1231.3 671.08 1209.81 671.088 L 1087.44 671.139 L 707.587 671.14 L 641.786 671.231 C 633.132 671.265 617.143 671.974 609.382 671.317 L 609.425 1106.79 L 609.433 1242.61 C 609.435 1260.67 610.491 1293.92 608.997 1310.18 z"/>
<path transform="translate(0,0)" fill="rgb(236,92,40)" d="M 1260.55 1251.63 C 1263.47 1251.85 1264.89 1252.03 1267.14 1254.09 C 1285.53 1270.87 1303.6 1287.97 1321.62 1305.09 L 1406.68 1385.01 L 1684.48 1644.99 L 1747.36 1704.1 C 1757.36 1713.48 1771.29 1728.09 1781.8 1735.87 C 1705.29 1736.62 1627.15 1735.76 1550.5 1735.75 L 1403.49 1735.72 C 1380.54 1735.73 1345.59 1737.07 1323.95 1735.09 C 1312.23 1727.15 1276.82 1692.12 1265.04 1681.13 L 1114.5 1539.71 L 1067.62 1495.53 C 1057.13 1485.6 1041.76 1470.3 1030.55 1462.51 C 1042.44 1447.9 1055.46 1437.61 1069.45 1425.04 L 1113.49 1385.1 L 1260.55 1251.63 z"/>
</svg>