<svg version="1.1" xmlns="http://www.w3.org/2000/svg" style="display: block;" viewBox="0 0 1774 2048" width="1500" height="1732" preserveAspectRatio="none">
<defs>
	<linearGradient id="Gradient1" gradientUnits="userSpaceOnUse" x1="446.839" y1="1208.46" x2="1439.41" y2="1205.09">
		<stop class="stop0" offset="0" stop-opacity="1" stop-color="rgb(176,138,67)"/>
		<stop class="stop1" offset="1" stop-opacity="1" stop-color="rgb(216,194,129)"/>
	</linearGradient>
	<linearGradient id="Gradient2" gradientUnits="userSpaceOnUse" x1="334.892" y1="840.942" x2="1440.1" y2="840.057">
		<stop class="stop0" offset="0" stop-opacity="1" stop-color="rgb(172,132,60)"/>
		<stop class="stop1" offset="1" stop-opacity="1" stop-color="rgb(216,194,129)"/>
	</linearGradient>
	<linearGradient id="Gradient3" gradientUnits="userSpaceOnUse" x1="355.05" y1="1023.54" x2="1770.04" y2="1023.44">
		<stop class="stop0" offset="0" stop-opacity="1" stop-color="rgb(181,144,74)"/>
		<stop class="stop1" offset="1" stop-opacity="1" stop-color="rgb(216,193,129)"/>
	</linearGradient>
</defs>
<path transform="translate(0,0)" fill="url(#Gradient3)" d="M 886.264 0 L 886.805 0 C 902.018 7.37578 922.421 20.0087 937.397 28.7036 L 1022.08 77.6659 L 1301.84 239.137 L 1616.39 420.703 L 1717.73 479.153 C 1734.73 488.952 1758.01 501.522 1774 512.08 L 1774 1536.26 C 1748.45 1552.32 1716.92 1569.4 1690.44 1584.69 L 1527.93 1678.45 L 1129.25 1908.67 C 1049.59 1954.57 966.898 2000.93 888.208 2048 L 886.441 2048 L 555.116 1856.64 L 448.119 1794.98 C 430.946 1785.08 407.118 1772.19 390.842 1761.56 C 373.531 1753.24 343.055 1734.26 325.78 1724.29 L 194.94 1648.76 L 66.4744 1574.62 C 48.9548 1564.53 15.6258 1546.63 0 1535.87 L 0 512.189 C 29.8687 493.547 64.2955 474.441 95.0242 456.824 L 217.453 386.109 L 299.462 338.726 C 309.421 332.965 330.522 319.845 339.935 315.537 C 357.406 304.465 379.379 292.511 397.627 282.009 L 497.182 224.54 L 757.899 73.9835 C 800.336 49.4876 844.194 24.9175 886.264 0 z M 133.275 589.176 L 133.539 1168.94 L 133.535 1371.2 C 133.531 1399.79 132.663 1431.13 133.229 1459.35 L 276.659 1541.95 L 315.594 1564.36 C 319.229 1566.44 333.24 1574.25 336.152 1576.52 C 345.504 1580.81 368.616 1594.94 378.075 1600.41 L 463.041 1649.59 L 749.28 1814.76 L 843.735 1869.24 C 855.413 1875.96 876.206 1888.95 887.481 1894.5 C 900.702 1885.59 922.422 1873.61 936.599 1865.56 L 991.522 1833.8 L 1181.78 1724.09 L 1474.01 1555.25 C 1528.42 1523.78 1586.5 1489.05 1641.36 1459.07 L 1641.2 1144.38 L 1641.28 589.162 C 1621.46 576.317 1591.42 560.245 1570.34 548.066 L 1425.11 464.273 L 1071.06 259.898 C 1010.22 224.771 947.52 189.505 887.323 153.615 L 537.766 355.413 L 431.788 416.697 C 415.075 426.366 392.888 439.999 376.131 448.451 C 357.957 460.653 327.837 476.688 307.908 488.129 L 189.06 556.748 C 175.132 564.759 145.101 581.002 133.275 589.176 z"/>
<path transform="translate(0,0)" fill="url(#Gradient2)" d="M 885.451 384.87 C 893.172 384.949 1018.72 460.843 1034.32 469.986 L 1211.08 572.057 L 1359.84 657.904 C 1385.63 672.763 1417.18 689.905 1441.91 705.536 C 1442.66 720.435 1442.01 742.407 1442 757.878 L 1441.93 859.205 L 886.03 538.393 C 862.995 550.855 837.915 566.043 814.927 579.301 L 674.618 660.376 L 556.995 728.167 C 536.697 739.887 514.119 752.357 494.437 764.672 C 493.455 781.382 494.067 802.615 494.075 819.667 L 494.08 917.264 C 534.156 939.538 573.61 963.352 613.56 985.924 C 644.842 1004.65 678.323 1023.34 710.033 1041.65 L 900.622 1151.68 L 976.237 1195.3 C 989.584 1203.01 1006.56 1212.24 1019.21 1220.58 C 1006.38 1229.08 987.28 1239.56 973.606 1247.58 L 887.622 1297.97 C 850.863 1278.06 810.675 1253.73 774.254 1232.73 L 544.913 1100.3 L 404.735 1019.37 C 386.202 1008.7 350.049 989.434 333.488 977.878 C 332.911 965.878 333.352 949.395 333.359 937.087 L 333.407 859.295 C 333.437 808.832 332.191 753.928 333.517 703.974 C 348.053 694.119 374.727 679.808 390.904 670.526 L 495.971 609.883 L 885.451 384.87 z"/>
<path transform="translate(0,0)" fill="url(#Gradient1)" d="M 736.356 827.672 C 753.111 816.344 775.052 804.107 792.674 793.958 L 867.385 750.221 C 900.445 767.351 938.756 791.175 971.597 809.997 L 1200.84 942.206 L 1361.61 1035.04 L 1413.8 1065.15 C 1422.26 1070.03 1434.14 1076.4 1441.96 1081.75 L 1442.02 1343.64 C 1384.9 1377.62 1325.49 1411 1267.84 1444.29 L 886.998 1664.2 C 880.146 1659.62 873.264 1653.64 866.702 1649.78 C 829.263 1627.77 791.258 1606.07 753.651 1584.37 L 571.098 1478.98 L 504.068 1440.34 C 493.689 1434.36 476.443 1425.05 467.02 1418.56 C 464.135 1417.68 435.095 1400.57 430.56 1397.96 L 333.557 1341.84 C 332.671 1325.62 333.312 1303.52 333.315 1286.94 L 333.168 1187.96 C 359.957 1202.3 386.369 1218.96 413.022 1233.7 C 423.422 1239.46 435.391 1246.08 445.125 1252.58 C 467.014 1263.7 496.869 1282.15 518.601 1294.71 L 659.087 1375.85 L 813.106 1464.76 C 837.771 1479 871.202 1497.06 894.643 1512.16 C 906.314 1503.91 929.006 1491.72 942.358 1483.92 L 1047.55 1423.4 C 1124.87 1379.28 1202.38 1332.39 1280.06 1289.24 L 1280.03 1142.25 C 1238.12 1115.99 1187.02 1088.28 1143.78 1063.28 L 869.591 904.969 L 784.264 855.759 C 769.3 847.124 750.474 836.886 736.356 827.672 z"/>
<path transform="translate(0,0)" fill="rgb(174,136,64)" d="M 333.168 1187.96 C 359.957 1202.3 386.369 1218.96 413.022 1233.7 C 423.422 1239.46 435.391 1246.08 445.125 1252.58 L 444.9 1254.17 C 449.544 1259.77 448.018 1261.82 456.176 1266.33 C 460.32 1268.63 466.039 1276.4 467.32 1280.63 C 470.282 1288.28 463.864 1315.05 469.417 1319.79 L 471.404 1320 C 474.165 1329.66 475.868 1340.37 483.435 1346.57 L 482.504 1348.51 C 480.493 1347.91 480.187 1347.67 478.104 1347.74 C 474.202 1357.24 473.215 1364.56 472.856 1374.89 C 472.815 1376.08 469.205 1378.74 468.188 1379.52 C 465.017 1387.2 465.667 1411.03 470.694 1418.36 C 469.502 1418.43 468.203 1418.54 467.02 1418.56 C 464.135 1417.68 435.095 1400.57 430.56 1397.96 L 333.557 1341.84 C 332.671 1325.62 333.312 1303.52 333.315 1286.94 L 333.168 1187.96 z"/>
<path transform="translate(0,0)" fill="rgb(174,136,64)" d="M 339.935 315.537 C 340.408 315.551 340.88 315.586 341.353 315.579 C 346.669 315.51 379.091 299.191 380.548 299.404 C 386.517 300.274 381.42 304.541 393.071 300.657 C 393.725 301.556 397.839 328.158 398.623 331.8 C 398.87 332.949 397.074 335.188 397.342 337.507 C 403.979 336.614 404.672 334.713 411.5 333.701 L 412.574 334.819 L 412.178 336.235 C 410.587 342.042 409.78 344.372 414.289 349.011 C 415.759 356.681 413.118 359.897 414.21 367.515 C 406.562 378.257 396.275 382.265 397.475 396.699 C 397.974 402.707 396.956 411.769 399.517 416.629 L 399.21 417.967 C 396.376 419.328 396.215 419.244 393.236 419.742 C 390.12 427.101 391.765 432.726 387.148 439.248 C 384.106 443.545 376.928 444.462 375.845 447.819 L 376.131 448.451 C 357.957 460.653 327.837 476.688 307.908 488.129 L 189.06 556.748 C 175.132 564.759 145.101 581.002 133.275 589.176 L 133.539 1168.94 L 133.535 1371.2 C 133.531 1399.79 132.663 1431.13 133.229 1459.35 L 276.659 1541.95 L 315.594 1564.36 C 319.229 1566.44 333.24 1574.25 336.152 1576.52 L 335.899 1578.15 C 344.063 1584.66 347.11 1583.13 352.842 1587.68 C 359.889 1593.28 367.131 1603.94 376.906 1607.43 L 378.876 1605.23 C 381.643 1607.57 382.432 1614.77 383.017 1615.09 C 386.798 1617.12 396.83 1616.52 397.463 1622.47 C 397.923 1626.8 393.662 1634.59 393.787 1637.53 C 393.805 1637.94 396.576 1651.27 395.958 1650.18 C 400.937 1659.02 396.52 1666.92 403.897 1673.25 C 409.28 1678.56 414.927 1680.2 414.609 1688.59 C 414.59 1697.4 413.797 1706.46 413.136 1715.24 C 409.209 1716.43 407.871 1712.77 401.897 1713.08 C 396.794 1715.92 393.867 1725.07 396.947 1728.99 C 405.051 1739.29 397.135 1748.94 401.968 1758.85 C 403.105 1760.81 402.927 1762.62 402.45 1764.71 L 401.146 1765.72 C 398.081 1763.95 394.436 1760.86 391.506 1760.94 L 390.842 1761.56 C 373.531 1753.24 343.055 1734.26 325.78 1724.29 L 194.94 1648.76 L 66.4744 1574.62 C 48.9548 1564.53 15.6258 1546.63 0 1535.87 L 0 512.189 C 29.8687 493.547 64.2955 474.441 95.0242 456.824 L 217.453 386.109 L 299.462 338.726 C 309.421 332.965 330.522 319.845 339.935 315.537 z"/>
</svg>