<svg version="1.1" xmlns="http://www.w3.org/2000/svg" style="display: block;" viewBox="0 0 1568 1024" width="392" height="256" preserveAspectRatio="none">
<path transform="translate(0,0)" fill="rgb(255,255,255)" d="M 696.539 644.392 C 710.458 640.675 726.16 628.824 741.889 625.559 C 769.276 619.874 780.765 629.511 801.269 644.122 C 802.596 645.067 806.131 646.318 807.784 645.972 C 816.252 643.856 823.868 637.99 831.768 634.112 C 852.233 624.064 877.739 618.649 898.662 631.455 C 907.352 636.713 913.943 644.83 917.305 654.414 C 922.428 669.122 920.904 684.791 921.256 699.905 C 921.943 729.383 918.826 762.541 925.733 791.117 C 930.948 794.988 938.404 795.643 939.569 802.506 C 934.079 815.641 881.607 807.932 869.341 808.752 C 864.392 809.082 855.963 805.802 852.756 801.209 C 853.619 795.952 864.747 796.151 868.475 792.312 C 869.874 790.87 870.058 788.491 870.149 786.58 C 870.772 773.573 869.37 760 869.257 746.932 C 869.077 726.153 869.887 705.247 869.145 684.49 C 868.821 675.397 868.889 663.416 861.748 656.926 C 855.759 651.483 847.401 647.879 839.25 648.454 C 830.477 649.074 819.672 652.612 813.832 659.555 C 805.194 669.823 808.655 765.829 809.935 784.25 C 810.037 785.8 810.439 788.04 810.671 789.639 C 814.063 795.371 822.832 794.36 824.353 800.892 C 823.123 804.486 819.597 806.659 816.536 809.029 C 798.677 810.613 766.998 809.717 749.128 807.737 C 745.322 805.283 743.016 804.555 742.976 799.815 C 744.967 796.324 752.508 792.183 756.61 789.189 C 759.069 773.723 757.721 756.486 757.663 740.838 C 757.582 718.597 758.514 695.588 755.898 673.464 C 754.981 665.705 752.806 658.828 746.34 653.927 C 740.147 649.233 732.065 648.045 724.521 649.084 C 716.895 650.135 703.11 655.335 698.518 661.972 C 694.275 668.104 695.18 777.202 698.022 792.751 C 703.832 794.366 713.91 796.376 713.139 803.844 C 702.918 813.886 654.8 809.201 639.973 807.563 C 635.351 807.052 628.206 804.272 623.695 802.474 C 587.58 807.706 569.005 830.932 543.48 787.149 C 536.253 790.684 530.459 796.223 523.897 800.427 C 498.6 816.64 468.558 820.472 449.379 792.751 C 428.736 762.915 453.545 742.932 478.525 730.319 C 500.06 719.445 525.644 710.08 544.788 696.132 C 546.631 683.539 545.798 659.502 541.776 647.164 C 535.998 629.441 501.5 644.203 499.909 656.376 C 498.063 670.514 500.078 679.815 495.162 694.34 C 459.574 725.008 432.21 691.313 458.833 661.092 C 479.37 637.78 519.187 626.715 549.933 624.404 C 598.176 621.653 594.331 652.485 594.317 688.481 L 594.233 745.811 C 594.223 761.774 593.726 776.793 596.119 792.632 C 608.162 794.171 619.754 798.576 632.072 796.837 C 634.923 796.434 639.881 795.203 641.604 792.708 C 646.84 785.128 648.352 677.71 645.502 665.878 C 643.979 659.556 634.761 658.8 630.029 655.716 C 628.05 654.426 627.813 653.727 627.383 651.589 C 631.467 646.746 667.862 636.007 676.827 631.185 C 693.802 622.053 695.158 631.42 696.539 644.392 z M 500.896 785.062 C 504.775 787.899 509.742 791.378 514.922 790.089 C 548.016 781.859 546.348 759.704 545.213 731.744 C 545.026 727.128 545.674 714.316 540.502 712.912 C 521.927 722.857 497.978 730.52 491.011 752.836 C 487.348 764.566 493.113 776.396 500.896 785.062 z"/>
<path transform="translate(0,0)" fill="rgb(255,255,255)" d="M 473.552 166.003 C 474.817 165.76 476.041 166.054 477.334 166.243 C 483.164 176.557 475.79 391.317 478.135 419.274 C 479.777 438.848 481.665 436.321 501.479 444.635 C 499.2 446.341 494.46 450.015 491.659 450.722 C 471.025 455.93 443.565 453.864 422.426 452.097 C 417.47 451.683 408.415 447.418 404.267 447.555 C 393.978 447.896 383.988 452.448 374.4 454.656 C 364.879 456.848 350.513 454.718 340.511 453.585 C 336.039 445.89 331.354 438.321 326.461 430.887 C 303.771 444.492 296.069 456.768 265.146 456.429 C 257.802 456.901 243.568 453.609 239.089 446.844 C 200.208 388.245 262.543 373.679 303.484 354.325 C 325.935 343.712 331.102 343.99 328.386 317.535 C 325.977 294.07 334.697 281.863 305.507 282.8 C 275.97 289.384 284.621 311.287 277.822 333.695 C 271.702 353.87 235.66 355.17 232.273 340.589 C 219.575 285.917 323.975 256.444 362.145 272.61 C 379.713 281.942 375.261 309.864 376.217 325.956 C 378.266 360.426 371.1 404.825 381.312 437.176 C 403.721 441.697 428.629 449.103 428.71 417.279 C 428.887 347.252 431.165 275.349 428.991 205.436 C 422.06 199.596 417.813 199.331 410.638 193.82 L 410.481 191.772 C 413.589 187.028 435.369 181.559 441.752 178.925 C 452.094 174.657 462.963 169.316 473.552 166.003 z M 280.789 381.787 C 275.315 398.148 271.078 416.295 285.525 429.187 C 288.922 431.465 292.865 434.264 296.406 436.19 C 305.248 430.518 324.645 421.399 326.683 412.102 C 328.577 403.462 329.791 363.386 326.673 357.183 L 324.906 356.092 C 309.29 362.546 293.605 370.583 280.789 381.787 z"/>
<path transform="translate(0,0)" fill="rgb(255,255,255)" d="M 684.832 164.935 L 687.096 166.514 C 688.739 171.167 688.67 204.165 688.72 210.923 L 688.77 353.002 C 688.745 370.489 687.537 407.346 689.429 422.599 C 693.056 425.563 702.703 430.507 707.568 433.544 L 707.667 435.599 C 701.464 445.881 657.78 450.903 646.251 451.978 C 641.986 452.376 638.359 441.403 635.742 438.001 C 630.732 436.932 616.785 447.572 610.488 450.497 C 604.844 453.114 598.827 454.837 592.654 455.605 C 570.889 458.322 558.619 453.789 541.922 440.758 C 522.693 426.523 513.587 390.318 515.754 367.79 C 516.868 356.205 515.709 348.468 518.497 336.512 C 524 312.909 535.418 292.597 556.433 279.547 C 585.133 261.784 607.148 269.393 636.579 276.012 L 638.079 274.87 C 641.006 266.62 639.997 213.521 639.284 202.476 C 631.817 199.071 624.376 195.613 616.959 192.099 C 623.383 187.779 626.148 186.628 633.722 184.547 C 651.259 179.727 668.05 171.941 684.832 164.935 z M 606.06 431.7 C 617.808 430.616 638.995 424.676 639.29 410.237 C 639.926 379.063 640.403 347.369 638.685 316.23 C 637.448 294.937 626.971 280.533 603.994 282.257 C 566.472 290.544 568.693 347.482 569.652 376.997 C 570.428 400.861 580.227 426.149 606.06 431.7 z"/>
<path transform="translate(0,0)" fill="rgb(255,255,255)" d="M 1339.58 268.407 C 1393.17 264.704 1386.53 291.265 1387.6 328.288 C 1388.09 345.171 1385.37 425.481 1390.33 435.145 C 1393.14 437.771 1399.49 438.694 1403.32 438.94 C 1423.11 440.212 1437.01 443.909 1438.11 418.95 C 1439.81 382.849 1439.49 346.101 1438.55 310.035 C 1438.41 304.921 1419.51 301.836 1420.4 295.289 C 1425.58 289.82 1443.28 287.128 1450.83 283.737 C 1483.28 269.161 1489.38 259.907 1488.72 300.983 C 1504.1 284.266 1531.1 254.234 1553.42 276.808 C 1559.77 283.237 1563.15 289.74 1567.59 297.463 C 1565.06 306.055 1556.92 319.662 1548.81 323.844 C 1531.89 332.561 1521.83 312.314 1512.8 302.009 C 1480.9 290.299 1489.31 421.053 1490.94 434.637 C 1495.52 436.246 1499.83 438.393 1504.22 440.467 L 1515.3 444.393 C 1496.25 457.617 1472.25 453.13 1450.12 453.447 C 1438.62 453.611 1427.73 451.127 1417.08 446.886 C 1387.71 451.891 1388.63 457.611 1355.88 454.434 C 1347.14 446.906 1340.81 436.26 1335.46 432.085 C 1332.05 432.891 1320.92 441.506 1317.34 444.194 C 1292.17 463.018 1246.71 461.273 1238.78 424.59 C 1227.3 369.38 1308.56 367.858 1337.46 340.191 C 1341.06 335.191 1339.95 323.962 1339.58 318.575 C 1338.36 301.21 1341.3 277.687 1315.41 283.026 C 1310.13 284.125 1305.13 286.279 1300.7 289.358 C 1275.99 306.498 1316.34 341.135 1258.25 351.594 C 1250.35 349.411 1238.99 343.312 1239.32 333.991 C 1240.89 290.017 1305.53 271.283 1339.58 268.407 z M 1295.36 429.383 C 1309.01 441.387 1323.3 426.609 1333.77 417.273 C 1341.66 410.236 1341.61 362.742 1336.93 356.38 L 1334.93 356.022 C 1327.16 359.708 1319.32 363.514 1311.58 367.242 C 1284.52 380.273 1272.53 404.736 1295.36 429.383 z"/>
<path transform="translate(0,0)" fill="rgb(255,255,255)" d="M 1020.81 268.41 C 1022.58 268.261 1024.36 268.124 1026.13 268 C 1053.7 266.09 1063.74 275.847 1082.98 292.625 C 1111.45 273.779 1151.27 254.747 1182.62 279.014 C 1201.67 293.764 1198.53 317.495 1198.53 338.369 C 1198.52 365.604 1197.78 393.045 1198.98 420.25 C 1199.67 435.817 1205.71 436.254 1217.51 442.611 C 1219.15 443.557 1219.08 444.753 1219.16 446.262 C 1211.46 457.172 1142.07 456.479 1131.55 446.396 C 1132.06 443.593 1142.84 437.938 1145.55 434.304 C 1147.14 432.184 1150.32 428.628 1150.37 425.533 C 1150.53 416.321 1150.43 406.2 1150.43 397.091 C 1150.43 373.626 1150.63 350.23 1150.13 326.787 C 1149.97 316.505 1147.11 306.663 1139.37 299.551 C 1125.82 287.089 1104.48 290.519 1092.77 303.724 C 1089.71 307.177 1086.91 313.064 1086.41 317.688 C 1084.75 332.818 1085.81 348.335 1085.48 363.541 C 1085.5 383.259 1085.22 403.088 1086.06 422.711 C 1086.78 439.566 1100.08 439.041 1105.97 444.023 C 1105.84 452.656 1089.76 452.97 1083.42 453.465 C 1071.86 453.883 1022.93 456.444 1018.33 445.015 C 1020.62 440.1 1031.24 438.699 1035.06 432.542 C 1040.44 423.859 1038.32 343.1 1037.38 328.562 C 1037 322.729 1036.18 317.128 1034.9 311.428 C 1028.97 305.159 1022.22 298.893 1015.97 292.885 C 972.878 288.628 971.043 316.194 972.628 350.091 C 973.704 373.086 968.901 416.363 977.989 436.685 C 983.532 439.217 989.648 440.085 990.587 446.546 C 985.582 456.764 905.486 457.456 900.464 444.341 C 903.934 440.294 916.099 440.904 921.642 434.151 C 922.929 432.582 923.75 430.684 924.012 428.672 C 925.276 418.203 925.057 389.316 924.936 377.627 C 924.704 355.16 925.627 327.24 923.969 305.173 C 918.261 302.895 906.291 301.631 903.504 296.641 C 905.782 291.447 929.506 285.33 935.927 282.587 C 941.508 280.202 963.736 270.181 967.894 270.59 C 971.816 273.334 974.943 284.804 976.616 289.707 C 987.175 281.454 1007.7 271.817 1020.81 268.41 z"/>
<path transform="translate(0,0)" fill="rgb(255,255,255)" d="M 278.525 533.399 C 331.035 531.349 385.744 533.855 438.326 533.711 C 448.453 533.684 466.657 589.924 465.14 596.615 C 463.134 599.065 464.137 598.576 461.458 598.953 C 457.963 596.709 457.246 595.752 454.733 592.703 C 433.723 567.214 409.497 541.792 373.606 544.067 C 363.237 544.725 345.939 542.708 344.502 558.138 C 343.493 568.967 344.027 580.392 344.024 591.082 L 344.181 658.298 C 358.072 657.903 374.926 660.946 386.832 651.92 C 403.775 639.076 408.044 621.97 411.548 602.897 C 422.041 629.426 418.825 669.404 418.222 698.75 C 418.155 712.481 418.372 716.244 412.835 728.352 C 405.569 708.392 396.452 685.334 375.983 675.243 C 365.866 670.255 355.757 671.55 344.954 672.213 C 340.429 704.55 345.59 754.915 345.304 788.374 C 345.243 795.543 366.216 794.372 368.488 800.478 C 362.461 814.048 325.647 809.243 313.156 809.71 C 304.09 810.049 265.97 809.556 262.156 801.54 C 263.531 794.487 279.566 796.212 284.52 791.747 C 287.364 784.996 284.987 744.836 285.161 734.711 C 286.237 672.318 283.514 609.021 285.444 546.726 C 280.053 545.712 265.846 542.622 263.345 537.641 L 264.402 535.844 C 268.385 533.494 273.796 533.675 278.525 533.399 z"/>
<path transform="translate(0,0)" fill="rgb(255,255,255)" d="M 43.6275 176.452 C 67.192 175.611 104.424 173.702 124.607 183.431 C 118.18 185.856 101.232 188.326 98.2704 191.193 C 97.6243 207.437 133.384 295.957 140.271 317.91 C 143.835 329.274 149.794 347.502 154.276 358.976 C 157.07 366.126 160.543 372.816 164.551 379.393 C 177.246 342.737 193.544 288.826 206.395 254.184 C 234.033 179.678 183.714 193.462 180.332 180.989 C 184.727 174.785 263.435 174.185 273.295 179.865 L 273.747 181.689 C 271.057 187.706 256.513 196.031 249.064 203.348 C 228.696 223.889 216.506 269.244 206.716 296.73 C 191.318 340.361 176.439 383.401 163.307 427.869 C 164.298 436.01 143.298 466.887 134.467 454.916 C 124.207 441.01 107.686 393.329 102.196 378.152 C 80.415 317.936 56.7394 261.926 35.9971 201.657 C 31.5843 188.836 14.9228 188.883 11.7235 181.696 L 12.5678 180.003 C 18.3104 176.745 36.2588 176.731 43.6275 176.452 z"/>
<path transform="translate(0,0)" fill="rgb(255,255,255)" d="M 780.706 352.499 C 774.983 367.943 780.46 381.386 786.312 395.551 C 797.314 422.184 828.196 437.106 854.9 423.939 C 862.934 419.978 873.345 406.91 882.717 409.032 C 887.745 416.481 859.75 441.92 852.093 445.851 C 809.106 467.92 761.198 454.278 737.911 412.623 C 723.959 387.896 720.577 358.584 728.534 331.329 C 742.722 281.644 786.477 258.787 836.69 271.72 C 866.88 279.495 890.647 315.278 887.836 347.037 C 887.776 347.712 886.323 348.86 885.756 349.403 C 874.284 350.942 862.494 349.579 851.336 350.339 C 830.452 351.761 809.926 353.18 788.937 351.897 C 796.731 345.948 825.78 350.366 837.863 348.219 L 838.446 347.202 C 828.575 341.229 799.589 343.237 787.774 345.862 C 783.829 346.738 782.551 349.202 780.706 352.499 z M 777.612 334.572 C 788.696 336.733 802.631 336.869 814.019 336.97 C 824.322 336.789 832.539 336.508 842.874 335.598 C 841.244 319.379 839.643 301.3 830.461 287.332 C 820.551 283.62 816.521 281.907 805.629 283.313 C 784.362 291.696 778.778 313.762 777.612 334.572 z"/>
<path transform="translate(0,0)" fill="rgb(255,255,255)" d="M 1152.77 628.37 C 1163.13 628.328 1227.19 626.232 1232.08 630.231 C 1230.49 637.155 1220.72 640.577 1219.42 648.814 C 1218.43 655.109 1245.41 721.723 1249.98 731.295 C 1253.35 738.372 1257.1 744.64 1261.72 750.98 L 1261.9 750.506 C 1265.61 740.763 1269.35 727.889 1272.86 717.334 C 1279 697.879 1287.86 679.256 1291.23 659.042 C 1293.87 643.221 1268.52 639.048 1265.34 631.971 L 1266.19 630.177 C 1273.73 627.372 1331.84 626.346 1336.4 631.099 C 1335.44 634.16 1322.86 643.847 1319.48 647.811 C 1307.61 661.743 1302.3 678.394 1295.48 695.296 C 1286.42 717.142 1278.03 739.258 1270.31 761.612 C 1266.69 777.538 1258.4 790.636 1252.3 805.654 C 1247.56 821.257 1240.01 834.766 1234.53 849.926 C 1222.83 882.298 1165.55 887.521 1163.74 848.686 C 1163.12 835.424 1173.07 821.372 1187.68 821.899 C 1196.44 822.214 1204.58 833.027 1209.86 839.117 C 1207.53 843.927 1201.73 853.255 1207.84 856.744 C 1222.97 852.949 1227.24 827.843 1228.32 814.631 C 1229.86 802.153 1217.98 790.221 1214.74 779.545 C 1208.67 759.59 1199.1 742.416 1191.2 723.478 C 1180.63 698.128 1171.17 671.288 1157.95 647.273 C 1156.11 643.944 1144.85 635.09 1141.67 632.567 L 1141.82 630.806 C 1144.42 628.442 1149.09 628.635 1152.77 628.37 z"/>
<path transform="translate(0,0)" fill="rgb(255,255,255)" d="M 1122.52 523.262 L 1123.79 523.181 C 1124.03 523.314 1125.56 524.039 1125.62 524.179 C 1126.19 525.488 1124.96 548.204 1124.96 552.058 C 1124.99 579.429 1122.48 778.429 1127.75 788.757 C 1130.59 794.315 1143.41 797.541 1148.93 799.63 L 1140.24 809.811 C 1116.55 809.884 1088.52 810.457 1065.26 807.677 C 1060.69 806.013 1059.38 805.71 1056.86 802.002 C 1057.03 791.252 1076.85 803.456 1076.89 773.245 C 1076.98 703.549 1078.1 633.552 1076.48 563.921 C 1076.29 555.5 1060.2 555.677 1057.86 547.606 C 1059.22 545.233 1117.86 523.974 1122.52 523.262 z"/>
<path transform="translate(0,0)" fill="rgb(255,255,255)" d="M 1019.61 626.09 C 1022.7 626.815 1022.42 628.913 1022.49 631.552 C 1023.57 670.355 1022.76 709.223 1023.12 748.032 C 1023.25 762.112 1021.79 780.372 1029.55 792.297 C 1034.58 794.93 1043.01 796.259 1044.35 801.594 C 1043.38 803.57 1043.13 804.83 1041.05 805.876 C 1027.95 812.474 976.196 810.038 963.747 807.474 C 959.785 806.425 955.521 805.582 953.379 801.907 C 956.007 796.115 975.692 793.462 975.403 781.134 C 974.508 742.883 976.571 704.108 974.959 665.931 C 974.582 656.996 956.461 659.725 954.827 651.834 C 958.206 648.085 1011.07 629.197 1019.61 626.09 z"/>
<path transform="translate(0,0)" fill="rgb(255,255,255)" d="M 989.793 552.26 C 1007.76 550.023 1032.35 558.274 1026.94 582.093 C 1024.81 591.443 1011.82 597.494 1003.64 601.314 C 991.647 603.957 981.24 598.678 970.916 593.502 C 959.37 573.641 967.685 556.885 989.793 552.26 z"/>
<path transform="translate(0,0)" fill="rgb(255,255,255)" fill-opacity="0.027451" d="M 780.706 352.499 C 782.551 349.202 783.829 346.738 787.774 345.862 C 799.589 343.237 828.575 341.229 838.446 347.202 L 837.863 348.219 C 825.78 350.366 796.731 345.948 788.937 351.897 C 787.128 352.477 782.802 352.437 780.706 352.499 z"/>
<path transform="translate(0,0)" fill="rgb(254,240,180)" d="M 0 994.576 C 16.9894 997.796 49.6653 996.032 68.8065 996.056 C 119.615 996.43 170.425 996.506 221.235 996.284 L 270.385 996.361 C 276.635 996.387 290.385 996.155 296.257 996.837 C 309.971 996.099 327.275 996.573 341.234 996.61 L 417.389 996.781 C 479.071 996.936 543.175 996.163 604.65 997.279 L 943.484 996.753 C 1000.99 996.68 1060.54 995.808 1117.91 996.676 C 1157.76 995.826 1198.95 996.298 1238.92 996.256 L 1450.47 996.139 L 1527.04 996.242 C 1536.65 996.272 1560.16 997.089 1568 995.415 L 1568 1024 L 1397.41 1024 L 1053.19 1024 L 430.787 1024 L 238.4 1024 L 0 1024 L 0 994.576 z"/>
<path transform="translate(0,0)" fill="rgb(247,202,77)" d="M 1117.91 996.676 C 1157.76 995.826 1198.95 996.298 1238.92 996.256 L 1450.47 996.139 L 1527.04 996.242 C 1536.65 996.272 1560.16 997.089 1568 995.415 L 1568 1024 L 1397.41 1024 L 1053.19 1024 C 1042.72 1016.99 957.789 1023.32 938.544 1020.68 C 933.526 1012.58 938.729 1008.01 943.031 1001.67 C 941.712 999.75 941.985 1000.35 938.942 999.639 C 942.595 998.39 953.924 998.86 958.505 998.867 L 1013.77 999.012 C 1018.91 999.046 1037.19 999.578 1041.16 998.772 C 1032.7 997.623 1008.17 998.184 997.959 998.15 L 906.987 997.955 L 604.883 998.042 L 604.65 997.279 L 943.484 996.753 C 1000.99 996.68 1060.54 995.808 1117.91 996.676 z"/>
<path transform="translate(0,0)" fill="rgb(224,161,30)" d="M 1117.91 996.676 C 1157.76 995.826 1198.95 996.298 1238.92 996.256 L 1450.47 996.139 L 1527.04 996.242 C 1536.65 996.272 1560.16 997.089 1568 995.415 L 1568 1024 L 1397.41 1024 L 1388.25 1021.52 C 1392.14 1018.7 1466.33 1022.48 1477.78 1020.05 C 1479.15 1016.82 1474.44 1003 1473.01 999.129 C 1466.23 997.658 1452.78 998.364 1445.35 998.344 C 1429.25 998.3 1412.96 998.751 1396.84 998.57 L 1235.25 997.047 C 1197.6 997.004 1155.24 997.981 1117.91 996.676 z"/>
<path transform="translate(0,0)" fill="rgb(247,202,77)" d="M 0 994.576 C 16.9894 997.796 49.6653 996.032 68.8065 996.056 C 119.615 996.43 170.425 996.506 221.235 996.284 L 270.385 996.361 C 276.635 996.387 290.385 996.155 296.257 996.837 C 282.884 998.35 264.493 997.027 252.688 998.596 C 256.672 999.558 271.944 998.908 276.991 999.05 C 299.538 999.685 325.652 997.797 347.91 999.331 C 342.646 1004.38 350.517 1011.79 347.691 1018.38 C 345.71 1020.55 343.904 1020.96 341.059 1021.12 C 315.068 1022.5 261.214 1017.51 238.4 1024 L 0 1024 L 0 994.576 z"/>
<path transform="translate(0,0)" fill="rgb(248,219,137)" d="M 296.257 996.837 C 309.971 996.099 327.275 996.573 341.234 996.61 L 417.389 996.781 C 479.071 996.936 543.175 996.163 604.65 997.279 L 604.883 998.042 L 427.5 999.454 C 417.858 999.562 354.033 998.09 349.747 1001.41 C 349.989 1004.36 351.55 1010.36 352.379 1012.96 C 352.147 1012.24 350.709 1019.03 350.653 1019.94 C 354.42 1021.49 427.599 1020.59 441.037 1021.53 C 437.605 1022.29 434.187 1023.11 430.787 1024 L 238.4 1024 C 261.214 1017.51 315.068 1022.5 341.059 1021.12 C 343.904 1020.96 345.71 1020.55 347.691 1018.38 C 350.517 1011.79 342.646 1004.38 347.91 999.331 C 325.652 997.797 299.538 999.685 276.991 999.05 C 271.944 998.908 256.672 999.558 252.688 998.596 C 264.493 997.027 282.884 998.35 296.257 996.837 z"/>
<path transform="translate(0,0)" fill="rgb(248,219,137)" d="M 435.539 0 L 934.422 0 L 1281.46 0 L 1568 0 L 1568 27.7919 C 1401.14 25.3853 1232.54 29.3024 1065.47 27.7239 C 1058.29 28.0546 1050.16 27.8783 1042.93 27.8062 C 963.584 27.0147 883.716 29.314 804.422 27.8746 C 779.869 28.9302 749.122 28.0846 724.125 28.077 C 683.105 28.0644 641.077 28.5674 600.163 27.8645 C 595.105 26.8498 585.381 27.8852 581.15 27.2703 C 566.375 25.1226 482.372 29.7765 474.031 25.9711 L 483.251 25.9047 L 481.309 24.5793 C 481.915 20.2515 489.207 20.9876 491.32 14.2044 C 487.308 0.987408 474.965 3.38019 464.389 2.64583 C 454.866 1.98465 444.985 1.32103 435.539 0 z"/>
<path transform="translate(0,0)" fill="rgb(254,240,180)" d="M 435.539 0 L 934.422 0 C 906.159 3.8615 883.248 3.03883 854.821 3.03464 L 694.671 3 L 694.535 3.77705 C 693.011 12.231 689.046 9.17741 683.671 15.2627 C 683.875 16.5666 683.594 16.5848 684.278 17.091 C 687.133 19.2049 692.098 18.4809 695.541 19.2955 C 695.555 19.2988 702.028 24.6655 702.034 24.6656 C 708.747 24.8457 719.783 25.032 726.047 25.0403 L 869.605 26.009 C 873.44 26.0271 900.605 25.7213 902.236 26.4462 C 886.596 26.562 814.005 24.9439 804.422 27.8746 C 779.869 28.9302 749.122 28.0846 724.125 28.077 C 683.105 28.0644 641.077 28.5674 600.163 27.8645 C 595.105 26.8498 585.381 27.8852 581.15 27.2703 C 566.375 25.1226 482.372 29.7765 474.031 25.9711 L 483.251 25.9047 L 481.309 24.5793 C 481.915 20.2515 489.207 20.9876 491.32 14.2044 C 487.308 0.987408 474.965 3.38019 464.389 2.64583 C 454.866 1.98465 444.985 1.32103 435.539 0 z"/>
<path transform="translate(0,0)" fill="rgb(224,161,30)" d="M 1281.46 0 L 1568 0 L 1568 27.7919 C 1401.14 25.3853 1232.54 29.3024 1065.47 27.7239 C 1072.42 26.4619 1117.19 26.9983 1126.33 26.9824 L 1275 25.5735 C 1282.96 25.4663 1335.25 26.4244 1338.9 24.2478 L 1338.68 23.1139 C 1338.14 15.0625 1342.6 13.3306 1343.65 5.69384 L 1342 3.84 C 1338.29 2.66551 1330.1 3.53314 1325.92 3.27639 C 1311.42 2.38667 1279.11 4.93235 1265.98 2.59585 C 1268.49 1.24828 1278.01 0.428092 1281.46 0 z"/>
<path transform="translate(0,0)" fill="rgb(247,202,77)" d="M 1338.68 23.1139 C 1333.02 18.5835 1338.58 6.3788 1342 3.84 L 1343.65 5.69384 C 1342.6 13.3306 1338.14 15.0625 1338.68 23.1139 z"/>
<path transform="translate(0,0)" fill="rgb(248,219,137)" d="M 185.934 0 L 435.539 0 C 444.985 1.32103 454.866 1.98465 464.389 2.64583 C 474.965 3.38019 487.308 0.987408 491.32 14.2044 C 489.207 20.9876 481.915 20.2515 481.309 24.5793 L 483.251 25.9047 L 474.031 25.9711 C 482.372 29.7765 566.375 25.1226 581.15 27.2703 C 585.381 27.8852 595.105 26.8498 600.163 27.8645 C 524.113 29.8138 446.816 26.9363 370.624 27.9815 C 331.557 28.5174 291.589 28.3245 252.558 27.7696 C 243.318 25.3714 223.97 28.0754 213.907 26.115 C 212.166 23.5892 216.459 15.545 213.772 11.0567 C 211.775 7.72302 209.642 4.71712 207.363 1.55615 C 200.049 1.22349 193.195 1.00366 185.934 0 z"/>
<path transform="translate(0,0)" fill="rgb(247,202,77)" d="M 0 0 L 185.934 0 C 193.195 1.00366 200.049 1.22349 207.363 1.55615 C 209.642 4.71712 211.775 7.72302 213.772 11.0567 C 216.459 15.545 212.166 23.5892 213.907 26.115 C 223.97 28.0754 243.318 25.3714 252.558 27.7696 C 245.06 28.0715 237.353 27.7781 229.832 27.8598 C 153.404 28.6892 76.36 25.7004 0 27.9275 L 0 0 z"/>
</svg>